 <svg xmlns="http://www.w3.org/2000/svg" xmlns:xlink="http://www.w3.org/1999/xlink" width="17px" height="20px" version="1.1" id="Layer_1" x="0px" y="0px" viewBox="0 0 17 20" style="enable-background:new 0 0 17 20;" xml:space="preserve" class="svg svg-icon replaced-svg">
                                <style type="text/css">
                                    .st0{fill:rgba(255,255,255,0.8);}
                                </style>
                                <title>Combined Shape</title>
                                <desc>Created with Sketch.</desc>
                                <g>
                                    <path class="st0" d="M10.6,9.8c1.7-0.8,2.9-2.6,2.9-4.6c0-2.8-2.3-5.1-5.1-5.1c-2.8,0-5.1,2.3-5.1,5.1c0,2,1.2,3.8,2.9,4.6   c-3.4,0.9-5.9,4-5.9,7.7v2.1h0.8v-2.1v0c0-4,3.2-7.2,7.2-7.2c4,0,7.2,3.2,7.2,7.2v0v2.1h0.8v-2.1C16.5,13.8,14,10.7,10.6,9.8z    M12.8,5.2c0,2.4-1.9,4.3-4.3,4.3c-2.4,0-4.3-1.9-4.3-4.3s1.9-4.3,4.3-4.3C10.9,0.9,12.8,2.8,12.8,5.2z"></path>
                                </g>
    </svg>