<?xml version="1.0" encoding="utf-8"?>
<!-- Generator: Adobe Illustrator 21.0.2, SVG Export Plug-In . SVG Version: 6.00 Build 0)  -->
<svg version="1.1" id="Layer_1" xmlns="http://www.w3.org/2000/svg" xmlns:xlink="http://www.w3.org/1999/xlink" x="0px" y="0px"
	 viewBox="0 0 276.8 276.8" style="enable-background:new 0 0 276.8 276.8;" xml:space="preserve">
<style type="text/css">
	.st0{fill:none;}
	.st1{fill:#0FB3C6;}
	 g{fill:rgb(242, 238, 233);}
</style>
<title>bt-logo</title>
<g>
	<path class="st0" d="M160.9,15.4C160.9,15.4,160.9,15.4,160.9,15.4C160.9,15.4,160.9,15.4,160.9,15.4z"/>
	<path class="st0" d="M154.1,45.1C154.1,45.1,154,45.1,154.1,45.1C154,45.1,154.1,45.1,154.1,45.1z"/>
	<path class="st0" d="M186,98.8c0.2-1,0.1-2.2-0.6-3.5v0C186.1,96.6,186.2,97.8,186,98.8z"/>
	<path class="st0" d="M173.6,37.9c-0.1,0.1-0.2,0.2-0.3,0.3C173.4,38.1,173.5,38,173.6,37.9z"/>
	<path class="st0" d="M173.1,38.4c0,0-0.1,0.1-0.1,0.1C173,38.4,173,38.4,173.1,38.4z"/>
	<path class="st0" d="M183.9,57.8c3.4,1.9,3.2,4.4,1,4.8C187.1,62.3,187.4,59.7,183.9,57.8c-0.4-0.3-0.9-0.5-1.4-0.7
		C183,57.3,183.5,57.6,183.9,57.8z"/>
	<path class="st0" d="M181.5,56.7c0.3,0.1,0.6,0.2,0.8,0.4C182,56.9,181.7,56.8,181.5,56.7z"/>
	<path class="st0" d="M177.8,55.2c0.3,0.1,0.5,0.2,0.8,0.3C178.4,55.4,178.1,55.3,177.8,55.2z"/>
	<path class="st0" d="M169.2,52.5C169.2,52.5,169.2,52.5,169.2,52.5c0.2,0.1,4.2,1.1,8.3,2.6C173.3,53.6,169.2,52.5,169.2,52.5z"/>
	<path class="st0" d="M179.2,55.7c0.2,0.1,0.4,0.2,0.6,0.2C179.6,55.9,179.4,55.8,179.2,55.7z"/>
	<path class="st0" d="M180.4,56.2c0.2,0.1,0.4,0.2,0.7,0.3C180.8,56.4,180.6,56.3,180.4,56.2z"/>
	<path class="st0" d="M169.3,32.4c1.7,0,2.9-0.9,4.7,1c0.8,0.8,0.8,3-0.4,4.5c1.2-1.4,1.3-3.7,0.5-4.5
		C172.2,31.5,171,32.4,169.3,32.4c-2.8,0-4.3-3.3-5.3-5.3c-0.5-1.2-1.1-2.4-1.7-3.5c0.7,1.1,1.2,2.3,1.7,3.5
		C164.9,29.2,166.4,32.4,169.3,32.4z"/>
	<polygon class="st0" points="139.8,76.3 126.4,76.3 139.8,76.3 	"/>
	<polygon class="st0" points="139.4,102.1 139.9,100.4 139.4,102.1 	"/>
	<rect x="135.3" y="94.3" transform="matrix(0.2599 -0.9656 0.9656 0.2599 4.3701 204.0616)" class="st0" width="0" height="9.8"/>
	<path class="st0" d="M145.5,14.5c-1.6-0.5-4.8-0.9-5.3-1.1c0,0-0.1,0-0.1,0C140.2,13.5,143.7,14,145.5,14.5c1,0.4,2.1,1.1,3,2.3
		C147.6,15.6,146.5,14.8,145.5,14.5z"/>
	<rect x="134.5" y="83.3" transform="matrix(0.2599 -0.9656 0.9656 0.2599 15.1206 194.5877)" class="st0" width="0" height="8.2"/>
	<path class="st0" d="M157.7,15.7c0.9,0.2,1.9,0.2,3.1-0.3C159.6,15.8,158.6,15.8,157.7,15.7z"/>
	<path class="st0" d="M155.7,22.7c-0.5,2-1.9,3.7-2.7,5.8c-0.7,1.8-1.3,3.7-1.6,5.6c-0.9,5.8,1.2,7.7,2.2,9.2
		c0.6,0.9,0.6,1.5,0.4,1.8c0.2-0.3,0.3-0.9-0.4-1.9c-1-1.5-3.1-3.3-2.2-9.2c0.3-1.9,0.8-3.8,1.6-5.6
		C153.8,26.3,155.3,24.6,155.7,22.7c0.5-1.9,0.4-2.9,0.9-3.1c0,0,0,0,0,0C156,19.7,156.2,20.7,155.7,22.7z"/>
	<path class="st0" d="M152.4,47.6l-1-0.3c-0.2,0.8-0.4,1.6-0.8,2.3c-0.2,0.1-1.2-1.1-2-2.5c0.8,1.5,1.9,2.7,2,2.5
		c0.3-0.7,0.6-1.5,0.8-2.3L152.4,47.6l0.1-2.6l0.2,0l-0.2,0L152.4,47.6z"/>
	<path class="st0" d="M201.6,73.9c1.8-0.2,1.8-2.9-1.4-5.6l0,0C203.4,71,203.4,73.6,201.6,73.9z"/>
	<path class="st0" d="M170.9,15c-0.6,1.7-2.2,2.8-4,2.7c-2.9,0-4.6-1.2-5.9-1.1c-1,0.1-1.6,0.4-1.4,0.8c-0.1-0.4,0.5-0.7,1.4-0.8
		c1.3-0.2,3,1.1,5.9,1.1C168.7,17.8,170.3,16.7,170.9,15c0.4-1.6-0.7-2.8-2.2-3.2C170.2,12.2,171.3,13.4,170.9,15z"/>
	<path class="st0" d="M168.7,28.3c-0.8-0.6-1.1-1-1.7-2.7c-0.6-1.6-1.5-3.1-2.7-4.3c-1-0.8-2.1-1.5-3.3-2c0,0-2.4-0.8-2.8-0.4
		c-0.1,0.1-0.1,0.1,0,0.2c0,0,0-0.1,0-0.1c0.4-0.4,2.8,0.4,2.8,0.4c1.2,0.5,2.3,1.2,3.3,2c1.2,1.2,2.1,2.7,2.7,4.3
		C167.7,27.4,167.9,27.8,168.7,28.3c0.8,0.7,3.6,0.5,4.7-0.6c0.5-0.5,0.9-1.1,1.1-1.8c0.1-0.3,0.1-0.6,0.1-0.8
		c-0.1,1-0.5,1.9-1.2,2.6C172.3,28.8,169.6,28.9,168.7,28.3z"/>
	<path class="st0" d="M208.2,208.5L208.2,208.5c-6.7-12.5,8.4-19.4,19.3-45c12.7-29.6,2.7-59.4,2.3-60.6c0,0,0-0.1-0.1-0.1
		c0,0,10.7,30.4-2.3,60.7C216.5,189,201.5,196,208.2,208.5z"/>
	<path class="st0" d="M156.9,170.7c-0.9-0.9-1.4-2.1-1.6-3.4C155.5,168.7,156,169.8,156.9,170.7z"/>
	<path class="st0" d="M164.2,150.4c-1.7-1.3-2.9-4.1-2.4-8.7c0.8-8.8,3-17.4,6.5-25.5c0,0,0,0,0,0c-3.5,8.1-5.7,16.7-6.5,25.5
		C161.3,146.3,162.4,149.1,164.2,150.4z"/>
	<path class="st0" d="M192.5,80.1C192.5,80.1,192.5,80.1,192.5,80.1c0,0,1.7,3,4.1,7.7C194.4,83.5,192.7,80.6,192.5,80.1z"/>
	<path class="st0" d="M208.9,124.6c0.1,9.1-9.7,10.6-12.3-1.5c-1-4.5-2-8.9-2.9-12.9c0.9,3.9,1.9,8.3,2.9,12.9
		C199.2,135.3,208.9,133.8,208.9,124.6z"/>
	<path class="st0" d="M180.6,137.8c4.6,1.9,11.2-2.1,10.7-11C191.8,135.7,185.2,139.7,180.6,137.8z"/>
	<path class="st0" d="M175.5,83.6C175.5,83.6,175.5,83.6,175.5,83.6c0,0,0.4,0.4,1.1,1C175.9,83.9,175.5,83.6,175.5,83.6z"/>
	<path class="st0" d="M162.7,72.6c1.9,3.1,4.4,1.9,4.4-0.4C167.1,74.5,164.6,75.7,162.7,72.6c-2.4-3.9-3.1-10.5-3.1-10.6l0,0
		C159.6,62.1,160.2,68.6,162.7,72.6z"/>
	<path class="st0" d="M166.9,113.4c-2.4,2-5.7,0-4.6-6.5c1-7,0.9-14.2-0.1-21.2c0,0,0,0,0,0c1.1,7,1.1,14.2,0.1,21.3
		C161.2,113.4,164.5,115.4,166.9,113.4z"/>
	<path class="st0" d="M168.1,90.6c0.7,1.6,2,2.5,3.2,2.5C170.2,93.1,168.8,92.2,168.1,90.6c-1.9-4.3-3.7-13.5-3.7-13.7c0,0,0,0,0,0
		C164.4,77,166.2,86.4,168.1,90.6z"/>
	<path class="st0" d="M180,97.4c-1.4-3.6-2.9-8.5-3.8-11.4C177.1,88.9,178.6,93.9,180,97.4z"/>
	<path class="st0" d="M181.9,64.4c4.2,1.4,8,3.6,11.4,6.4c2,1.7,2.8,3.4,2.7,4.6c0.1-1.2-0.7-2.9-2.7-4.6
		C189.9,68,186.1,65.8,181.9,64.4C181.9,64.4,181.9,64.4,181.9,64.4z"/>
	<path class="st0" d="M201.5,136.6c0,0,0,0.1-0.1,0.2c-0.5,2.9-7.7,47.7-29.4,61.8c-2.4,1.5-4.5,2.6-6.5,3.2c2-0.7,4.2-1.7,6.5-3.3
		C194.5,184.1,201.5,136.6,201.5,136.6z"/>
	<path class="st0" d="M182.7,78.5c3.3,1.6,6.1,3.9,8.3,6.8C188.8,82.4,185.9,80.1,182.7,78.5C182.7,78.4,182.7,78.5,182.7,78.5z"/>
	<path class="st0" d="M206.5,188.8C206.5,188.8,206.5,188.7,206.5,188.8c0-0.1-16.8,19-41.8,19.3C189,207.8,205.5,189.9,206.5,188.8
		z"/>
	<path class="st0" d="M161.5,57c0.2-0.2,0.3-0.3,0.5-0.6C161.9,56.7,161.7,56.9,161.5,57z"/>
	<path class="st0" d="M149.5,51.2C149.5,51.2,149.5,51.2,149.5,51.2c0.4,3,1.3,5.9,2.5,8.7c0.9,1.9,0.5,3.2-0.4,3.4
		c0.9-0.2,1.3-1.5,0.4-3.4C150.8,57.2,149.9,54.2,149.5,51.2z"/>
	<path class="st0" d="M162,56.5c0.2-0.3,0.2-0.7,0.2-1.2C162.2,55.7,162.1,56.1,162,56.5z"/>
	<path class="st0" d="M204.2,102.8c-1.1-2.3-2.2-4.6-3.3-6.8C202,98.2,203.1,100.5,204.2,102.8L204.2,102.8c4.3,9,10.8,5.1,8.5-3.2
		C214.9,107.9,208.4,111.8,204.2,102.8z"/>
	<path class="st0" d="M206.4,184.4c-3.8,2.6-7.4,2.7-9.8,1C199,187.1,202.6,187,206.4,184.4z"/>
	<path class="st0" d="M161.5,53.8c0.4,0.5,0.6,1,0.7,1.5C162.1,54.8,161.9,54.3,161.5,53.8z"/>
	<path class="st0" d="M183.3,70.7c2.6,2.6,1.5,5.2-0.4,5.5C184.8,75.9,185.9,73.3,183.3,70.7L183.3,70.7c-2.9-2.6-6.1-4.7-9.6-6.3
		C177.1,66,180.4,68.1,183.3,70.7z"/>
	<path class="st0" d="M187.9,90c1.9,2.3,3.8,2.4,4.6,1.3C191.6,92.4,189.8,92.3,187.9,90z"/>
	<path class="st0" d="M174.7,24.4c0,0.1,0,0.1,0,0.2C174.7,24.5,174.7,24.4,174.7,24.4z"/>
	<path class="st0" d="M57.6,126.8c0,5.8,3,10.6,7.7,10.6C60.7,137.4,57.6,132.6,57.6,126.8z"/>
	<path class="st0" d="M57.7,125.7C57.7,125.7,57.7,125.7,57.7,125.7C57.7,125.7,57.7,125.7,57.7,125.7z"/>
	<path class="st0" d="M65.3,116.2L65.3,116.2c1.4,0,2.7,0.5,3.7,1.2C68,116.6,66.7,116.2,65.3,116.2z"/>
	<path class="st0" d="M65.3,137.4c2.6,0,4.6-1.4,5.9-3.7C69.9,135.9,67.9,137.4,65.3,137.4z"/>
	<path class="st0" d="M174.7,81.2c-0.2-0.3-0.4-0.5-0.7-0.8C174.2,80.7,174.5,81,174.7,81.2c1.4,1.7,2.8,2.1,3.7,1.7
		C177.5,83.3,176.1,82.9,174.7,81.2z"/>
	<path class="st0" d="M168.2,52.6c0-0.6-0.4-1.2-1.3-1.8c-0.6-0.5-1.4-0.9-2.2-1.3c0.8,0.4,1.6,0.9,2.2,1.3
		C167.8,51.4,168.1,52,168.2,52.6z"/>
	<path class="st0" d="M65.5,113.4L65.5,113.4C65.5,113.4,65.5,113.5,65.5,113.4c3.2,0,5.7,1,7.6,2.8
		C71.3,114.5,68.7,113.4,65.5,113.4z"/>
	<path class="st0" d="M65,140.2c-7.1,0-11.2-5.9-11.2-13.1C53.8,134.3,57.8,140.2,65,140.2z"/>
	<polygon class="st0" points="58.3,79.9 58.3,79.9 57.8,76.3 57.8,76.3 	"/>
	<path class="st0" d="M71.5,133.4c0,0,0,0.1-0.1,0.1C71.4,133.5,71.4,133.4,71.5,133.4z"/>
	<path class="st0" d="M75.9,131.9c0.6-1.6,0.9-3.4,0.9-5.3c0-3.8-0.9-7.1-2.8-9.4c1.9,2.3,2.8,5.6,2.8,9.4
		C76.8,128.5,76.5,130.3,75.9,131.9z"/>
	<path class="st0" d="M73.3,116.3c0.2,0.2,0.4,0.4,0.6,0.7C73.7,116.8,73.5,116.5,73.3,116.3z"/>
	<path class="st0" d="M156.2,46.3C156.2,46.3,156.2,46.3,156.2,46.3c0.2,0.1,1.6,0.5,3.5,1.1C157.7,46.7,156.2,46.3,156.2,46.3z"/>
	<path class="st0" d="M158.2,232.7c-19.2,1.5-14.4,21.9,4.4,21.6C143.8,254.6,139,234.2,158.2,232.7z"/>
	<path class="st0" d="M157.9,60.4c0-0.6-0.2-1.3-0.6-2l0,0c-1.4-2.7-3.2-5.3-5.2-7.7c0,0,0,0,0,0.1c2,2.4,3.7,4.9,5.1,7.6
		C157.7,59.2,157.8,59.8,157.9,60.4z"/>
	<polygon class="st0" points="138.2,139.6 138.1,139.3 138.2,139.6 	"/>
	<path class="st0" d="M214,215.1C214,215,214.1,215,214,215.1c0,0-7.5,9.2-23.8,14.4C205.8,224.5,213.4,215.9,214,215.1z"/>
	<rect x="31.6" y="113.9" class="st0" width="20.2" height="0"/>
	<polygon class="st0" points="111.8,132.9 109.2,139.6 105.9,139.6 105.9,139.7 109.3,139.7 111.8,132.9 121.4,133 121.3,132.9 	"/>
	<rect x="39.9" y="139.7" class="st0" width="3.9" height="0"/>
	<path class="st0" d="M185.6,230.7c0.4-0.1,0.7-0.2,1.1-0.3C186.3,230.5,185.9,230.6,185.6,230.7z"/>
	<path class="st0" d="M187.9,230.1c0.6-0.2,1.2-0.3,1.7-0.5C189.1,229.8,188.5,230,187.9,230.1z"/>
	<path class="st0" d="M183.1,231.3c0.1,0,0.3-0.1,0.4-0.1C183.3,231.2,183.2,231.3,183.1,231.3z"/>
	<path class="st0" d="M158.9,232.7c0.4,0,0.9-0.1,1.3-0.1C159.8,232.6,159.3,232.6,158.9,232.7z"/>
	<path class="st0" d="M154.7,207.3c-9.9-0.8-14.4,4-14.5,9.1C140.3,211.3,144.9,206.5,154.7,207.3z"/>
	<polygon class="st0" points="99.1,92.8 99.1,92.8 99.1,79.9 98.6,76.3 102.6,76.3 102.6,76.3 98.6,76.3 99.1,79.9 	"/>
	<polygon class="st0" points="87.3,126.7 97.1,139.7 87.3,126.6 	"/>
	<polygon class="st0" points="83.3,113.9 83.8,117.5 83.3,113.9 	"/>
	<rect x="83.8" y="139.7" class="st0" width="3.9" height="0"/>
	<path class="st0" d="M109.3,99.7c3.9,0,6.6-3.4,6.6-7.5v0C115.8,96.4,113.1,99.7,109.3,99.7c-3.8,0-6.7-3.1-6.7-7.2v0
		C102.6,96.6,105.4,99.7,109.3,99.7z"/>
	<path class="st0" d="M159.3,81.1c-0.3-0.1-0.7-0.3-1-0.5C158.6,80.8,159,81,159.3,81.1z"/>
	<polygon class="st0" points="112.9,130 118.5,130 112.9,130 	"/>
	<polygon class="st0" points="117.2,121 116.8,119.4 116.8,119.5 117.2,121 120.4,130 120.4,130 	"/>
	<path class="st0" d="M162.1,78.4c0,0.2,0,0.4,0,0.6C162.1,78.8,162.1,78.6,162.1,78.4z"/>
	<polygon class="st0" points="118.2,113.4 126.1,135.4 128.1,139.7 123.9,139.6 124,139.7 128.2,139.7 126.2,135.4 118.2,113.4 	"/>
	<path class="st0" d="M67.5,87c0.9-1.1,1.4-2.5,1.5-4C69,84.5,68.4,85.9,67.5,87C67.5,87,67.5,87,67.5,87z"/>
	<path class="st0" d="M223.1,104.2c-0.1,0-0.2,0.1-0.4,0.1C222.9,104.3,223,104.3,223.1,104.2z"/>
	<polygon class="st0" points="81,102.1 81,102.1 93.8,102.1 94.6,99.1 93.8,102.1 	"/>
	<path class="st0" d="M168.9,69.2c0,0,0.1,0.2,0.1,0.5C169,69.4,168.9,69.3,168.9,69.2C168.9,69.2,168.9,69.2,168.9,69.2z"/>
	<path class="st0" d="M72.4,82.2c0,2.2-1.9,4.4-2.9,5.4c0,0,0,0,0,0C70.5,86.6,72.4,84.4,72.4,82.2c0-2.6-1.5-4.5-3.8-5.4
		C70.9,77.7,72.4,79.6,72.4,82.2z"/>
	<path class="st0" d="M73.8,94.1c0,4.2-2.5,8-9.6,8h-5.9v0h5.9C71.4,102.1,73.9,98.3,73.8,94.1c0-2.8-1-4.4-2.6-5.5
		C72.8,89.7,73.8,91.3,73.8,94.1z"/>
	<path class="st0" d="M216.8,98.1c-2-11.6-14.4-21.6-14.4-21.6S214.8,86.5,216.8,98.1c0.9,5.1,3.6,6.8,5.9,6.3
		C220.4,105,217.7,103.2,216.8,98.1z"/>
	<polygon class="st0" points="87.3,126.2 95.2,116.5 96.4,113.9 101.4,113.9 101.4,113.9 96.4,113.9 95.2,116.5 87.3,126.1 	"/>
	<path class="st0" d="M61.8,86.7v-7.6C62.4,79,63,79,63.5,79c0,0,0,0,0,0c-0.5,0-1.1,0-1.7,0.1L61.8,86.7l2.8,0
		c0.9,0,1.8,0.1,2.7,0.3c-0.9-0.2-1.8-0.3-2.7-0.3H61.8z"/>
	<path class="st0" d="M64.7,99.3h-2.9v0L64.7,99.3c4.2,0,5.4-2.4,5.4-4.8c0,0,0,0,0,0C70.1,96.8,68.9,99.3,64.7,99.3z"/>
	<path class="st1" d="M171.9,61.5L171.9,61.5c2.7,3.3,5.2-0.2,2.6-2.7s-8.1-2.9-8.1-2.9C168.3,57.7,170.2,59.5,171.9,61.5z"/>
	<path class="st1" d="M201.4,136.8c-0.8,2.5-12,35.1-37.1,43.3l0,0c-17.6,5.8-14.9,27.1,1.2,21.7c2-0.7,4.1-1.7,6.5-3.2
		C193.7,184.5,201,139.7,201.4,136.8z"/>
	<path class="st1" d="M206.4,184.4c2.7-1.9,5.4-5,7.8-9.7c19.5-37.9,2.8-68.6,2.8-68.6s5.5,34.7-18.2,62.8l0,0
		c-6.3,7.5-5.7,14-2.2,16.6C199,187,202.6,187,206.4,184.4z"/>
	<path class="st1" d="M157.9,60.4c-0.1-0.6-0.2-1.3-0.6-2c-1.4-2.7-3.2-5.3-5.1-7.6c0.1,0.5,1.3,9,2.5,11.2
		C155.7,63.8,158.1,62.9,157.9,60.4z"/>
	<path class="st1" d="M202.4,76.5c0,0,12.4,10,14.4,21.6c0.9,5.1,3.6,6.8,5.9,6.3c0,0,0.1,0,0.1,0c0.1,0,0.2-0.1,0.4-0.1
		c2.7-1.1,4.6-5.4,1.8-11.1h0C219.5,82.5,203,76.9,202.4,76.5z"/>
	<path class="st1" d="M164.4,53.5L164.4,53.5c1.3,1.8,4,0.7,3.8-0.9c-0.1-0.6-0.4-1.2-1.3-1.8c-0.6-0.5-1.4-0.9-2.2-1.3
		c-1.6-0.8-3.4-1.5-5-2c-1.8-0.6-3.3-1-3.4-1.1C156.5,46.5,162.5,51,164.4,53.5z"/>
	<path class="st1" d="M161.5,57c0.2-0.2,0.3-0.3,0.5-0.6c0.2-0.3,0.2-0.7,0.2-1.2c-0.1-0.5-0.3-0.9-0.7-1.5
		c-0.1-0.2-0.3-0.3-0.4-0.5h0c-1.9-1.8-4-3.4-6.4-4.6c0,0,2.5,6.2,4.4,8.1C159.8,57.6,160.9,57.6,161.5,57z"/>
	<path class="st1" d="M152,59.9c-1.2-2.8-2.1-5.7-2.5-8.7c-0.2,0.3-2.3,4.4-1,8.3h0c0.9,2.9,2.3,4,3.2,3.8
		C152.5,63.2,152.9,61.9,152,59.9z"/>
	<path class="st1" d="M162.6,254.3c0.6,0,1.3,0,2-0.1l0,0c31-2.8,49-38.2,49.4-39.1c-0.7,0.8-8.3,9.5-23.8,14.4
		c-0.2,0.1-0.3,0.1-0.5,0.2c-0.6,0.2-1.2,0.4-1.7,0.5c-0.4,0.1-0.8,0.2-1.3,0.3c-0.4,0.1-0.7,0.2-1.1,0.3c-0.7,0.2-1.4,0.3-2.1,0.5
		c-0.1,0-0.3,0.1-0.4,0.1c-6,1.2-12.8,1.8-20.6,1.4c-0.8,0-1.5-0.1-2.2-0.1c-0.5,0-0.9,0-1.3,0.1c-0.2,0-0.5,0-0.7,0
		C139,234.2,143.8,254.6,162.6,254.3z"/>
	<path class="st1" d="M227.5,163.5c-10.9,25.5-26,32.5-19.3,45l0,0c6.2,11.5,30.8-5.1,35.4-45.2c2.3-20.1,1.8-40.4-13.8-60.4
		C230.2,104.1,240.2,133.8,227.5,163.5z"/>
	<path class="st1" d="M200.2,68.3L200.2,68.3c-3.8-3.2-11.2-5-11.2-5c2.8,2.5,5.5,5.2,8.1,8c1.9,2.1,3.6,2.8,4.6,2.6
		C203.4,73.6,203.4,71,200.2,68.3z"/>
	<path class="st1" d="M193.3,70.8c-3.4-2.8-7.2-5-11.4-6.4c2.4,4,5.3,7.7,8.7,11c3,2.7,5.4,2,5.4,0
		C196.1,74.2,195.3,72.5,193.3,70.8z"/>
	<path class="st1" d="M183.9,57.8c-0.4-0.2-0.9-0.5-1.4-0.7c-0.1,0-0.1-0.1-0.2-0.1c-0.3-0.1-0.5-0.2-0.8-0.4
		c-0.1-0.1-0.3-0.1-0.4-0.2c-0.2-0.1-0.4-0.2-0.7-0.3c-0.2-0.1-0.4-0.1-0.6-0.2c-0.2-0.1-0.4-0.2-0.6-0.2c-0.2-0.1-0.4-0.1-0.5-0.2
		c-0.3-0.1-0.5-0.2-0.8-0.3c-0.1,0-0.2-0.1-0.3-0.1c-4.1-1.5-8.1-2.5-8.3-2.6c3.7,3.2,7.6,6.2,11.7,8.9l0,0c1.6,1,3,1.3,4,1.1
		C187.1,62.2,187.4,59.7,183.9,57.8z"/>
	<path class="st1" d="M154.5,227.8c36.7,0,51.4-37.5,52-39.1c-1,1.1-17.5,19.1-41.8,19.3c-2.6,0-5.3-0.1-8-0.6h0
		c-0.7-0.1-1.4-0.2-2-0.2c-9.9-0.8-14.4,4-14.5,9.1C140.1,221.9,145.2,227.8,154.5,227.8z"/>
	<path class="st1" d="M191.2,126.8c0-0.1,0-0.1,0-0.2c-0.9-12.5-17.4-30.6-17.7-30.9c0.1,0.3,2.4,13.5,2.7,34c0,4.4,1.9,7,4.4,8
		C185.2,139.7,191.8,135.7,191.2,126.8z"/>
	<path class="st1" d="M170.3,63c-2.2-2.2-5-3.8-8-4.7c1.2,2.9,2.8,5.6,4.8,8C169.9,69.3,173.9,66.6,170.3,63z"/>
	<path class="st1" d="M168.9,69.2c0,0,0.1,0.2,0.1,0.5c0.5,1.6,2.2,6.9,5,10.7c0.2,0.3,0.4,0.6,0.7,0.8c1.4,1.6,2.8,2,3.7,1.7
		c1.6-0.6,2.1-3.4-0.3-6C175.4,74,172.3,71.4,168.9,69.2z"/>
	<path class="st1" d="M176.5,84.5c-0.7-0.6-1.1-1-1.1-1c0,0.1,0.3,1,0.7,2.4c0.9,2.9,2.5,7.8,3.8,11.4c0.2,0.5,0.4,0.9,0.5,1.3
		c1.6,3.8,4.9,3,5.5,0.1c0.2-1,0-2.2-0.6-3.5v0C183.6,91.2,178.7,86.5,176.5,84.5z"/>
	<path class="st1" d="M157.7,15.7c-0.9-0.2-1.5-0.5-1.9-0.7l-3.4-2c-1-0.5-2.2-0.8-3.3-0.9c-1.6,0-3.7,1.1-4.4,1.1
		c-0.6,0-4,0-4.5,0.1c0.5,0.2,3.7,0.6,5.3,1.1c1,0.3,2.1,1.1,3,2.3c0.9,1.2,1.6,2.8,1.9,4.8c0.3,1.8-0.4,7.8-1.4,12.6
		c-1,4.4-1.5,9.5-1,11.4c0.1,0.5,0.4,1,0.6,1.5c0.8,1.4,1.9,2.7,2,2.5c0.3-0.7,0.6-1.5,0.8-2.3l1,0.3l0.1-2.6l0.2,0l1.2,0.2
		c0,0,0,0,0.1-0.1c0,0,0-0.1,0.1-0.1c0,0,0,0,0,0c0.1-0.3,0.2-0.9-0.4-1.8c-1-1.5-3.1-3.3-2.2-9.2c0.3-1.9,0.8-3.8,1.6-5.6
		c0.8-2.1,2.2-3.8,2.7-5.8c0.5-2,0.3-2.9,0.9-3.1c0,0,0,0,0,0c0,0,0,0,0.1,0c0.6-0.1,4.6,2.4,6.2,7.7c1.9,6,5,12.9,9.2,11.6
		c0.3-0.1,0.6-0.2,0.8-0.4c0,0,0.1-0.1,0.1-0.1c0.1-0.1,0.2-0.1,0.2-0.2c0.1-0.1,0.2-0.2,0.3-0.3c0,0,0,0,0,0
		c1.2-1.4,1.3-3.6,0.4-4.5c-1.9-1.9-3.1-1-4.7-1c-2.9,0-4.4-3.2-5.4-5.2c-0.5-1.2-1-2.4-1.7-3.5c-0.3-0.6-0.7-1.1-1.1-1.6
		c-1.3-1.7-3-2.5-3-2.9c0-0.1,0-0.1,0-0.2c0.4-0.4,2.8,0.4,2.8,0.4c1.2,0.5,2.3,1.2,3.3,2c1.2,1.2,2.1,2.7,2.7,4.3
		c0.6,1.7,0.8,2.1,1.7,2.7c0.8,0.6,3.6,0.4,4.7-0.7c0.8-0.7,1.2-1.6,1.2-2.6c0-0.2,0-0.3,0-0.5c0-0.1,0-0.1,0-0.2
		c-0.2-1.5-1.2-2.7-2.7-3.1c-1.3-0.5-4.1-0.4-5.6-0.8c-1-0.3-2.1-0.6-3.1-1c-1.6-0.6-2-0.5-3.1-1.4c-0.3-0.2-0.4-0.5-0.5-0.6
		c-0.2-0.5,0.4-0.7,1.4-0.8c1.3-0.2,3,1.1,5.9,1.1c1.8,0.1,3.4-1,4-2.7c0.4-1.6-0.7-2.8-2.2-3.2c-1.3-0.3-3-0.1-4.2,1.1
		c-1.3,1.3-2.5,2-3.5,2.4c0,0-0.1,0-0.1,0c0,0,0,0,0,0C159.6,15.8,158.6,15.8,157.7,15.7z"/>
	<path class="st1" d="M164.2,150.4c3.8,2.9,10.5-1.6,9.4-10.5c-1-8-2.8-16-5.4-23.6c-3.5,8.1-5.7,16.7-6.5,25.5
		C161.3,146.3,162.4,149.1,164.2,150.4z"/>
	<path class="st1" d="M171.3,93.1c2,0.1,3.6-1.9,1.4-6.2c-1.9-4-4.8-7.4-8.4-10c0,0.2,1.9,9.5,3.8,13.7
		C168.8,92.2,170.2,93.1,171.3,93.1z"/>
	<path class="st1" d="M208.9,124.6c0-1.3-0.2-2.8-0.7-4.4c-0.1-0.5-0.3-0.9-0.4-1.3c-2.2-6.6-6.4-12.2-10.2-16.2
		c-0.2-0.3-0.5-0.5-0.7-0.8c-3.6-3.7-6.7-5.9-6.7-5.9c0,0.2,1.6,6.1,3.5,14.1c0.9,3.9,1.9,8.3,2.9,12.9
		C199.2,135.3,208.9,133.8,208.9,124.6z"/>
	<path class="st1" d="M167.1,72.2c0-0.8-0.3-1.7-1-2.6c-2.8-3.6-6.5-7.6-6.5-7.6c0,0.1,0.7,6.7,3.1,10.6
		C164.6,75.7,167.1,74.5,167.1,72.2z"/>
	<path class="st1" d="M200.9,96c1.1,2.2,2.2,4.4,3.3,6.8c4.3,9,10.7,5.1,8.5-3.2c-0.2-0.8-0.5-1.6-0.9-2.5
		c-4.3-9.8-18.8-16.7-19.3-16.9c0.2,0.4,1.9,3.4,4.1,7.7C197.9,90.2,199.3,93,200.9,96z"/>
	<path class="st1" d="M182.7,78.5c0.1,0.6,1.5,7.1,5.2,11.5c1.9,2.3,3.8,2.4,4.6,1.3c0.8-1.1,0.6-3.4-1.5-6
		C188.8,82.5,185.9,80.1,182.7,78.5z"/>
	<path class="st1" d="M183.3,70.7c-2.9-2.6-6.1-4.7-9.6-6.3c0,0,0,0,0,0c0,0,3.4,7.1,6.4,10.5c0.9,1,2,1.4,2.9,1.3
		C184.8,75.9,185.9,73.3,183.3,70.7z"/>
	<path class="st1" d="M158.3,80.5c0.3,0.3,0.7,0.4,1,0.5c0.2,0,0.3,0.1,0.5,0.1c0.5,0,0.9-0.1,1.3-0.4c0.1-0.1,0.2-0.2,0.4-0.3
		c0.2-0.2,0.4-0.5,0.5-0.9c0.1-0.2,0.1-0.4,0.1-0.6c0-0.2,0-0.4,0-0.6c0-0.2,0-0.5-0.1-0.7c0-0.2-0.1-0.5-0.2-0.8
		c-0.1-0.3-0.2-0.5-0.3-0.8v0c-2.2-4.5-7.6-11.3-7.6-11.3s1.2,11.1,3.5,14.6C157.7,79.9,158,80.3,158.3,80.5z"/>
	<path class="st1" d="M167.6,171.5C184.1,165.3,193,138,193,138s-7.7,12.3-29.6,18.4v0c-5.9,1.7-8.7,6.9-8.1,11
		c0.2,1.3,0.7,2.4,1.6,3.4C158.8,172.7,162.3,173.5,167.6,171.5z"/>
	<path class="st1" d="M162.3,106.9c-1.1,6.5,2.2,8.5,4.6,6.5c1.5-1.2,2.6-3.8,2.3-7.8c-0.8-10.4-6.9-19.7-7.1-20
		C163.2,92.7,163.3,99.8,162.3,106.9z"/>
	<path d="M138.4,0C138.4,0,138.4,0,138.4,0C62,0,0,62,0,138.4s62,138.4,138.4,138.4c74.6,0,138.4-59.7,138.4-138.4
		C276.8,62,214.8,0,138.4,0z M229.8,102.8C229.8,102.8,229.8,102.8,229.8,102.8c15.7,20.1,16.2,40.4,13.8,60.5
		c-4.6,40.1-29.1,56.8-35.4,45.2l0,0l0,0c-6.7-12.5,8.3-19.4,19.3-45C240.4,133.2,229.8,102.8,229.8,102.8z M154.7,207.3
		c0.7,0.1,1.3,0.1,2,0.2h0c2.8,0.4,5.4,0.6,8,0.6c25-0.3,41.8-19.4,41.8-19.4s0,0,0,0.1c-0.6,1.6-15.3,39.1-52,39.1
		c-9.3,0-14.4-5.9-14.3-11.4C140.3,211.3,144.9,206.5,154.7,207.3z M138.1,139.3l0,0.3h0l0,0h-3.9v0v-22.1l-0.5-3.6h4h0v22.8
		L138.1,139.3z M152.1,50.7c2,2.4,3.7,4.9,5.2,7.7l0,0c0.4,0.8,0.6,1.4,0.6,2c0.2,2.5-2.2,3.4-3.2,1.6
		C153.4,59.8,152.2,51.3,152.1,50.7C152.1,50.8,152.1,50.7,152.1,50.7z M156.2,46.3c0,0,1.5,0.4,3.5,1.1c1.6,0.5,3.4,1.2,5,2
		c0.8,0.4,1.6,0.9,2.2,1.3c0.9,0.6,1.2,1.3,1.3,1.8c0.1,1.7-2.5,2.8-3.9,0.9h0C162.5,51,156.5,46.5,156.2,46.3
		C156.2,46.3,156.2,46.3,156.2,46.3z M223.1,104.2c-0.1,0-0.2,0.1-0.4,0.1c0,0-0.1,0-0.1,0c-2.3,0.6-5-1.1-5.9-6.2
		c-2-11.6-14.4-21.7-14.4-21.7c0.6,0.4,17.2,6,22.5,16.7h0C227.8,98.8,225.8,103.2,223.1,104.2z M161.5,76.1L161.5,76.1
		c0.1,0.3,0.3,0.5,0.3,0.8c0.1,0.3,0.2,0.5,0.2,0.8c0,0.2,0.1,0.5,0.1,0.7c0,0.2,0,0.4,0,0.6s-0.1,0.4-0.1,0.6
		c-0.1,0.3-0.3,0.6-0.5,0.9c-0.1,0.1-0.2,0.2-0.4,0.3c-0.4,0.3-0.8,0.4-1.3,0.4c-0.2,0-0.3,0-0.5-0.1c-0.3-0.1-0.7-0.3-1-0.5
		c-0.3-0.3-0.6-0.6-0.9-1c-2.3-3.5-3.5-14.6-3.5-14.6S159.3,71.7,161.5,76.1z M174.4,58.9c2.6,2.5,0.1,5.9-2.6,2.7v0
		c-1.7-2-3.5-3.8-5.5-5.5C166.4,56,171.9,56.4,174.4,58.9z M191,85.3c2.1,2.5,2.3,4.8,1.5,6c-0.8,1.1-2.6,1.1-4.6-1.3
		c-3.7-4.4-5.1-10.9-5.2-11.5c0,0,0-0.1,0-0.1C185.9,80.1,188.8,82.4,191,85.3z M192.5,80.1c0.5,0.2,14.9,7.2,19.3,16.9
		c0.4,0.9,0.7,1.7,0.9,2.5c2.3,8.3-4.2,12.2-8.5,3.3v0c-1.1-2.3-2.2-4.6-3.3-6.8c-1.5-3-3-5.8-4.2-8.2
		C194.2,83.2,192.5,80.1,192.5,80.1C192.5,80.1,192.5,80.1,192.5,80.1z M161.7,141.7c0.8-8.8,3-17.4,6.5-25.5c0,0,0,0,0,0
		c2.6,7.7,4.4,15.6,5.4,23.6c1.1,8.9-5.6,13.4-9.4,10.5C162.4,149.1,161.3,146.3,161.7,141.7z M185.5,95.3c0.6,1.3,0.7,2.5,0.6,3.5
		c-0.5,2.9-3.9,3.7-5.5-0.1c-0.2-0.4-0.3-0.8-0.5-1.3c-1.4-3.5-2.9-8.5-3.8-11.4c-0.4-1.4-0.7-2.4-0.7-2.4c0,0,0,0,0,0
		s0.4,0.4,1.1,1C178.7,86.5,183.6,91.2,185.5,95.3L185.5,95.3L185.5,95.3z M178.4,82.9c-1,0.4-2.3,0-3.7-1.7
		c-0.2-0.3-0.4-0.5-0.7-0.8c-2.8-3.7-4.5-9.1-5-10.7c-0.1-0.3-0.1-0.5-0.1-0.5c0,0,0,0,0,0c3.3,2.2,6.4,4.7,9.1,7.6
		C180.5,79.5,180,82.3,178.4,82.9z M180.6,137.8c-2.4-1-4.3-3.6-4.4-8c-0.2-20.6-2.6-33.8-2.7-34c0.3,0.3,16.8,18.4,17.7,30.9
		c0,0.1,0,0.1,0,0.2C191.8,135.7,185.2,139.7,180.6,137.8z M164.4,76.9c3.6,2.5,6.5,6,8.4,10c2.1,4.3,0.5,6.4-1.4,6.2
		c-1.2-0.1-2.5-0.9-3.2-2.5C166.2,86.4,164.4,77,164.4,76.9C164.3,76.9,164.3,76.9,164.4,76.9z M162.1,85.6
		C162.1,85.6,162.1,85.7,162.1,85.6c0.2,0.2,6.3,9.5,7.1,20c0.3,4-0.9,6.6-2.3,7.8c-2.4,2-5.7,0-4.6-6.5
		C163.3,99.8,163.2,92.7,162.1,85.6z M163.4,156.4L163.4,156.4C185.3,150.3,193,138,193,138s-8.9,27.3-25.4,33.5
		c-5.3,2-8.8,1.2-10.7-0.8c-0.9-0.9-1.4-2.1-1.6-3.4C154.7,163.3,157.5,158.1,163.4,156.4z M196.6,123.1c-1-4.5-2-9-2.9-12.9
		c-1.9-8.1-3.5-14-3.5-14.1c0,0,3.1,2.1,6.7,5.9c0.2,0.3,0.5,0.5,0.7,0.8c3.7,4,7.9,9.5,10.2,16.2c0.1,0.4,0.3,0.9,0.4,1.3
		c0.5,1.6,0.7,3.1,0.7,4.4C208.9,133.8,199.2,135.3,196.6,123.1z M170.3,63c3.6,3.6-0.4,6.3-3.2,3.3c-2-2.4-3.6-5.1-4.8-8
		C165.3,59.2,168,60.8,170.3,63z M159.6,62.1c0,0,3.7,3.9,6.5,7.6c0.7,0.9,1,1.8,1,2.6c0,2.3-2.5,3.5-4.4,0.4
		C160.2,68.6,159.6,62.1,159.6,62.1L159.6,62.1z M164.3,180.2L164.3,180.2c25.1-8.3,36.3-40.9,37.1-43.4c0-0.1,0.1-0.2,0.1-0.2
		s-7,47.4-29.5,62c-2.4,1.5-4.6,2.6-6.5,3.3C149.4,207.2,146.7,186,164.3,180.2z M198.8,168.8L198.8,168.8
		C222.5,140.7,217,106,217,106s16.8,30.7-2.8,68.6c-2.4,4.7-5.2,7.9-7.8,9.7c-3.8,2.6-7.4,2.7-9.8,1
		C193.1,182.8,192.5,176.3,198.8,168.8z M193.3,70.8c2,1.7,2.8,3.4,2.7,4.6c-0.1,2-2.5,2.7-5.4,0c-3.3-3.3-6.3-7-8.7-11c0,0,0,0,0,0
		C186.1,65.8,189.9,68,193.3,70.8z M183.3,70.7L183.3,70.7c2.6,2.6,1.5,5.2-0.4,5.5c-0.9,0.1-1.9-0.2-2.9-1.3
		c-3-3.4-6.4-10.5-6.4-10.5c0,0,0,0,0,0C177.1,66,180.4,68.1,183.3,70.7z M161,53.3L161,53.3c0.2,0.2,0.4,0.3,0.5,0.5
		c0.4,0.5,0.6,1,0.7,1.5c0.1,0.5,0,0.9-0.2,1.2c-0.1,0.2-0.3,0.4-0.5,0.6c-0.7,0.5-1.7,0.6-2.5-0.3c-1.9-1.9-4.4-8.1-4.4-8.1
		C157,49.9,159.1,51.5,161,53.3z M151.6,63.3c-0.9,0.2-2.3-0.9-3.2-3.8h0c-1.2-3.9,0.9-8,1-8.3c0,0,0,0,0,0c0.4,3,1.3,5.9,2.5,8.7
		C153,61.9,152.5,63.2,151.6,63.3z M201.6,73.9c-1,0.1-2.7-0.6-4.6-2.6c-2.5-2.8-5.2-5.5-8.1-8c0,0,7.5,1.8,11.2,5l0,0l0,0
		C203.5,71,203.4,73.7,201.6,73.9z M185,62.6c-1,0.2-2.4-0.1-4-1.1l0,0c-4.1-2.7-8-5.7-11.7-8.9c0,0,0,0,0,0c0,0,4.1,1.1,8.3,2.6
		c0.1,0,0.2,0.1,0.3,0.1c0.3,0.1,0.5,0.2,0.8,0.3c0.2,0.1,0.4,0.1,0.5,0.2c0.2,0.1,0.4,0.2,0.6,0.2c0.2,0.1,0.4,0.1,0.6,0.2
		c0.2,0.1,0.4,0.2,0.7,0.3c0.1,0.1,0.3,0.1,0.4,0.2c0.3,0.1,0.6,0.2,0.8,0.4c0.1,0,0.1,0.1,0.2,0.1c0.5,0.2,1,0.5,1.4,0.7
		C187.4,59.7,187.1,62.3,185,62.6z M160.9,15.4C160.9,15.4,160.9,15.4,160.9,15.4c1.2-0.4,2.4-1.2,3.6-2.4c1.2-1.2,2.8-1.5,4.2-1.1
		c1.5,0.4,2.6,1.6,2.2,3.2c-0.5,1.7-2.2,2.8-4,2.7c-2.8,0-4.6-1.2-5.9-1.1c-0.9,0.1-1.5,0.3-1.4,0.8c0,0.2,0.2,0.4,0.5,0.6
		c1,0.9,1.5,0.8,3.1,1.4c1,0.4,2,0.7,3.1,1c1.5,0.3,4.3,0.2,5.6,0.8c1.5,0.4,2.6,1.7,2.7,3.1c0,0.1,0,0.1,0,0.2c0,0.2,0,0.3,0,0.5
		c0,0.3,0,0.6-0.1,0.8c-0.2,0.7-0.6,1.3-1.1,1.8c-1.1,1.1-3.9,1.3-4.7,0.7c-0.8-0.6-1.1-1-1.7-2.7c-0.6-1.6-1.5-3.1-2.7-4.3
		c-1-0.8-2.1-1.5-3.3-2c0,0-2.4-0.8-2.8-0.4c0,0,0,0.1,0,0.1c0,0.4,1.7,1.3,3,2.9c0.4,0.5,0.7,1.1,1.1,1.6c0.7,1.1,1.3,2.3,1.7,3.5
		c1,2,2.5,5.2,5.4,5.2c1.7,0,2.9-0.8,4.7,1c0.8,0.8,0.7,3.1-0.5,4.5c0,0,0,0,0,0c-0.1,0.1-0.2,0.2-0.3,0.3c-0.1,0.1-0.2,0.1-0.2,0.2
		c0,0-0.1,0.1-0.1,0.1c-0.3,0.2-0.5,0.3-0.8,0.4c-4.3,1.3-7.4-5.5-9.2-11.6c-1.6-5.3-5.7-7.9-6.2-7.7c0,0,0,0-0.1,0
		c-0.5,0.2-0.4,1.2-0.8,3c-0.5,2-1.9,3.7-2.7,5.8c-0.8,1.8-1.3,3.7-1.6,5.6c-0.9,5.8,1.2,7.7,2.2,9.2c0.7,1,0.5,1.6,0.4,1.9
		c0,0,0,0,0,0c0,0,0,0.1-0.1,0.1c-0.1,0.1-0.1,0.1-0.1,0.1l-1.2-0.2l-0.2,0l-0.1,2.6l-1-0.3c-0.2,0.8-0.4,1.6-0.8,2.3
		c-0.2,0.2-1.3-1.1-2-2.5c-0.3-0.5-0.5-1-0.6-1.5c-0.6-2,0-7.1,1-11.4c1-4.9,1.7-10.8,1.4-12.6c-0.3-2-1-3.6-1.9-4.8
		c-0.9-1.2-1.9-2-3-2.2c-1.8-0.5-5.2-1-5.4-1.2c0,0,0,0,0.1,0c0.5-0.1,3.9-0.1,4.5-0.1c0.7,0,2.7-1.1,4.4-1.1
		c1.2,0.1,2.3,0.4,3.3,0.9l3.4,2c0.4,0.2,1.1,0.6,1.9,0.7C158.6,15.8,159.6,15.8,160.9,15.4C160.9,15.4,160.9,15.4,160.9,15.4z
		 M139.8,76.3L139.8,76.3L139.8,76.3l0,2.9h-9.4v8.2h8.2l0,0h0l-0.8,2.9h-7.4v8.8h9.8l0,0h0l-0.3,1.2l-0.4,1.7h0l0,0h-12.5v0V79.9
		l-0.5-3.6L139.8,76.3z M128.2,139.7H124l0-0.1l-0.1,0l-2.4-6.7l-9.5,0l-2.5,6.7h-3.4l0,0h-0.1l10-25.8l2.4-0.5l0,0l0.1,0l8,22
		L128.2,139.7z M102.6,76.3L102.6,76.3v16.2c0,4.1,2.8,7.2,6.7,7.2s6.6-3.4,6.6-7.5V79.9l-0.5-3.6h3.8v15.5v0
		c0,6.3-4.2,10.8-10.6,10.8c-9.2,0-9.5-9.2-9.5-9.8v0c0,0,0,0,0,0V79.9l-0.5-3.6L102.6,76.3z M96.4,113.9h5l0,0h0.1l-10.2,12.2
		l10.5,13.5h-4.7l-9.8-13v10l0.4,2.9h0l0,0h-3.9v0v-22.2l-0.5-3.6h0h4h0v12.2l7.9-9.7L96.4,113.9z M80.5,76.3h4v22.8h10.1l-0.8,3H81
		v0h0V79.9L80.5,76.3L80.5,76.3z M57.8,76.3l6.2-0.2c1.7-0.1,3.3,0.2,4.6,0.7c2.4,0.9,3.8,2.8,3.8,5.4c0,2.1-1.9,4.3-2.9,5.4
		c0.6,0.3,1.2,0.6,1.8,1c1.6,1.1,2.7,2.7,2.7,5.5c0,4.2-2.5,8-9.6,8h-5.9v0V79.9L57.8,76.3L57.8,76.3L57.8,76.3z M65.5,113.4
		C65.5,113.4,65.5,113.5,65.5,113.4C65.5,113.5,65.5,113.4,65.5,113.4L65.5,113.4c3.2,0,5.8,1,7.6,2.8c0,0,0.1,0.1,0.1,0.1
		c0.2,0.2,0.4,0.4,0.6,0.7c0,0.1,0.1,0.1,0.2,0.2c1.9,2.3,2.8,5.6,2.8,9.4c0,1.9-0.3,3.7-0.9,5.3c-1.8,4.9-5.9,8.3-10.9,8.3
		c-7.2,0-11.2-5.9-11.2-13.1C53.8,119.4,58.8,113.4,65.5,113.4z M31.6,113.9L31.6,113.9l20.2,0v0h0v3h0h-8.5v19.9l0.4,2.9l0,0v0
		h-3.9v0v-22.8h-8.2V113.9z M158.2,232.7c0.2,0,0.5,0,0.7,0c0.4,0,0.9-0.1,1.3-0.1c0.7,0,1.5,0,2.2,0.1c7.8,0.4,14.7-0.2,20.6-1.4
		c0.1,0,0.3-0.1,0.4-0.1c0.7-0.1,1.4-0.3,2.1-0.5c0.4-0.1,0.7-0.2,1.1-0.3c0.4-0.1,0.9-0.2,1.3-0.3c0.6-0.2,1.2-0.3,1.7-0.5
		c0.2-0.1,0.4-0.1,0.5-0.2c16.3-5.1,23.8-14.4,23.8-14.4s0,0,0,0c-0.4,0.9-18.4,36.2-49.4,39.1l0,0c-0.7,0.1-1.3,0.1-2,0.1
		C143.7,254.6,139,234.2,158.2,232.7z"/>
	<polygon class="st1" points="81,102.1 81,102.1 93.8,102.1 94.6,99.1 84.5,99.1 84.5,76.3 80.5,76.3 80.5,76.3 81,79.9 	"/>
	<polygon class="st1" points="95.2,116.5 87.3,126.2 87.3,126.1 87.3,113.9 87.3,113.9 83.3,113.9 83.8,117.5 83.8,139.7 
		87.7,139.7 87.7,139.7 87.3,136.7 87.3,126.7 87.3,126.6 97.1,139.7 101.8,139.7 91.3,126.1 101.4,113.9 101.4,113.9 96.4,113.9 	
		"/>
	<path class="st1" d="M99.1,79.9l0,12.9v0c0,0.6,0.2,9.8,9.5,9.8c6.4,0,10.6-4.5,10.6-10.8v0V76.3h-3.8l0.5,3.6v12.3v0
		c0,4.2-2.7,7.5-6.6,7.5s-6.7-3.1-6.7-7.2v0V76.3h-4L99.1,79.9z"/>
	<path class="st1" d="M58.3,79.9v22.1h5.9c7.1,0,9.6-3.8,9.6-8c0-2.8-1-4.4-2.6-5.5c-0.5-0.4-1.1-0.7-1.8-1c0,0,0,0,0,0
		c1-1,2.9-3.2,2.9-5.4c0-2.6-1.5-4.5-3.8-5.4c-1.3-0.5-2.8-0.8-4.6-0.7l-6.2,0.2l0,0L58.3,79.9L58.3,79.9z M70.1,94.4
		C70.1,94.5,70.1,94.5,70.1,94.4C70.1,94.5,70.1,94.5,70.1,94.4c0,2.4-1.2,4.8-5.4,4.8h-2.9v0v-9.7v0H64
		C68,89.6,70.1,90.9,70.1,94.4z M67.5,87C67.5,87,67.5,87,67.5,87C67.5,87,67.5,87,67.5,87c-0.1,0-0.1,0-0.1,0
		c-0.9-0.2-1.8-0.2-2.7-0.3h-2.8v-7.7C62.4,79,63,79,63.5,79c0,0,0,0,0,0c0,0,0,0,0,0c3.8,0,5.5,1.3,5.5,4
		C69,84.5,68.4,85.9,67.5,87z"/>
	<path class="st1" d="M65,140.2c5,0,9.2-3.4,10.9-8.3c0.6-1.6,0.9-3.4,0.9-5.3c0-3.8-0.9-7.1-2.8-9.4c0-0.1-0.1-0.1-0.2-0.2
		c-0.2-0.2-0.4-0.5-0.6-0.7c0,0-0.1-0.1-0.1-0.1c-1.8-1.7-4.4-2.8-7.6-2.8c0,0,0,0,0,0c-6.7,0-11.7,6-11.7,13.6
		C53.8,134.3,57.9,140.2,65,140.2z M73,126.8c0,2.5-0.6,4.8-1.6,6.6c0,0,0,0.1-0.1,0.1c0,0.1-0.1,0.1-0.1,0.2
		c-1.3,2.2-3.4,3.7-5.9,3.7c-4.7,0-7.7-4.7-7.7-10.6c0-0.4,0-0.7,0-1.1c0,0,0-0.1,0-0.1c0.4-5.3,3.3-9.4,7.7-9.4l0,0
		c1.4,0,2.6,0.5,3.7,1.2C71.5,119.2,73,122.7,73,126.8z"/>
	<polygon class="st1" points="137.7,113.9 133.7,113.9 134.2,117.5 134.2,139.6 134.2,139.7 138.2,139.7 138.2,139.6 138.1,139.3 
		137.8,136.7 137.8,113.9 	"/>
	<polygon class="st1" points="39.9,139.7 43.8,139.7 43.8,139.7 43.4,136.7 43.4,116.9 51.8,116.9 51.8,116.9 51.8,113.9 
		51.8,113.9 31.6,113.9 31.6,116.9 39.9,116.9 	"/>
	<polygon class="st1" points="126.9,102.1 126.9,102.1 139.4,102.1 139.4,102.1 139.9,100.4 140.2,99.2 140.2,99.2 130.4,99.2 
		130.4,99.2 130.4,90.3 137.8,90.3 138.6,87.4 138.6,87.4 130.4,87.4 130.4,87.4 130.4,79.2 139.8,79.2 139.8,76.3 139.8,76.3 
		126.4,76.3 126.9,79.9 	"/>
	<path class="st1" d="M126.1,135.4l-8-22l0,0l-2.4,0.5l-10,25.8h0.1h3.3l2.5-6.7h9.6l0,0.1l2.4,6.7l0.1,0l4.2,0L126.1,135.4z
		 M120.4,130h-1.9l-5.7,0l0,0h0l3.5-9l0.5-1.6l0,0l0,0l0.4,1.5L120.4,130L120.4,130L120.4,130z"/>
	<polygon points="116.8,119.5 116.8,119.4 116.3,121 112.9,130 112.9,130 118.5,130 120.4,130 120.4,130 117.2,121 	"/>
	<path d="M61.8,89.6L61.8,89.6v9.7h2.9c4.2,0,5.4-2.4,5.4-4.8c0,0,0,0,0,0c0-3.6-2.1-4.8-6.1-4.8H61.8z"/>
	<path d="M65.3,116.2c-4.3,0-7.3,4.1-7.7,9.4c0,0,0,0.1,0,0.1c0,0.4,0,0.7,0,1.1c0,5.8,3.1,10.6,7.7,10.6c2.5,0,4.6-1.4,5.9-3.7
		c0-0.1,0.1-0.1,0.1-0.2c0,0,0-0.1,0.1-0.1c1-1.8,1.6-4.1,1.6-6.6c0-4.1-1.5-7.6-4-9.4C68,116.7,66.7,116.2,65.3,116.2z"/>
	<path d="M63.5,79C63.5,79,63.5,79,63.5,79c-0.5,0-1.1,0-1.7,0.1v7.6h2.8c0.9,0,1.8,0.1,2.7,0.3c0,0,0.1,0,0.1,0c0,0,0,0,0,0
		c0.9-1.1,1.5-2.5,1.5-4C69,80.3,67.3,79,63.5,79z"/>
</g>
</svg>
