<svg xmlns="http://www.w3.org/2000/svg" xmlns:xlink="http://www.w3.org/1999/xlink" width="22px" height="20px" version="1.1" id="Layer_1" x="0px" y="0px" viewBox="0 0 22 20" style="enable-background:new 0 0 22 20;" xml:space="preserve" class="svg svg-icon replaced-svg">
                                <style type="text/css">
                                    .st0{fill:rgb(255, 239, 255,0.8) ;}
                                </style>
                                <title>Page 1</title>
                                <desc>Created with Sketch.</desc>
                                <path class="st0" d="M17.9,4.4h-0.2c-0.2-2.4-2.1-4.2-4.5-4.2c-0.7,0-1.3,0.1-1.8,0.4c-0.6-0.2-1.2-0.4-1.8-0.4C7.1,0.1,5.2,2,5,4.4  h0H2.3V20h2.6h13h2.6V4.4H17.9z M19.8,19.2h-1.9V5.1h1.9V19.2z M5.7,19.2H3V5.1h2.6h11.5v14.1H5.7z M11.4,1.4c1.1,0.6,1.8,1.7,1.9,3  H9.4C9.5,3.1,10.3,2,11.4,1.4z M13.2,0.9c2,0,3.6,1.5,3.8,3.5h-2.9C14,3,13.3,1.8,12.2,1C12.5,0.9,12.9,0.9,13.2,0.9z M9.5,0.9  c0.3,0,0.7,0.1,1,0.1c-1,0.8-1.7,2-1.8,3.3H5.7C5.9,2.4,7.5,0.9,9.5,0.9z"></path>
                            </svg>