<svg version="1.1" id="ceremony-logo" xmlns="http://www.w3.org/2000/svg" xmlns:xlink="http://www.w3.org/1999/xlink" x="0px"
	 y="0px" viewBox="0 0 1012.6 110.2" style="enable-background:new 0 0 1012.6 110.2;" xml:space="preserve">
<style type="text/css">
	.logo-fill{fill:#FFFFFF;}
</style>
<g>
	<path class="logo-fill" d="M81.6,67.4l-1.7-0.2h-0.2c-0.9,0-1.5,0.7-1.8,2.1c-0.7,3.1-1.8,6.1-3.4,9c-1.6,2.9-3.6,5.6-6,7.9
		c-2.4,2.3-5.1,4.2-8.2,5.7c-3.1,1.5-6.4,2.3-9.9,2.4l-6.7,0.2c-4.7,0-9-0.9-12.9-2.7c-3.9-1.8-7.2-4.3-9.9-7.6
		c-2.7-3.3-4.8-7.2-6.4-11.8c-1.5-4.6-2.3-9.7-2.3-15.3c0-13,2.6-23.2,7.7-30.4C25,19.5,32.4,15.9,42,15.9c4.3,0,8.3,0.8,12,2.5
		c3.7,1.7,6.9,3.8,9.7,6.5c2.8,2.6,5,5.6,6.7,8.9c1.7,3.3,2.7,6.5,3,9.7c0.1,0.4,0.2,0.8,0.5,1c0.2,0.3,0.5,0.4,0.9,0.4
		c0.4,0,0.9,0,1.5-0.1c0.6,0,0.9-0.1,1.1-0.3c0.3-0.2,0.5-0.5,0.6-1c0.1-0.5,0.1-1.2,0.1-1.9c0-0.8,0-1.6-0.1-2.4
		c0-0.8-0.1-1.5-0.2-2.2c0-1.1-0.1-2.8-0.2-4.9c-0.1-2.2-0.2-4.4-0.4-6.8c-0.1-2.4-0.2-4.7-0.4-6.8c-0.1-2.2-0.2-3.8-0.3-5
		c0-0.5-0.3-0.7-1-0.7c-0.3,0-0.9,0-1.7,0.1c-0.8,0.1-1.4,0.1-1.8,0.1c-0.3,0-0.6,0.2-0.7,0.5c-0.1,0.4-0.2,0.8-0.2,1.3v2.9
		c0,1.8-0.2,2.7-0.6,2.7c-0.2,0-0.4-0.1-0.8-0.2c-0.4-0.2-0.7-0.3-1-0.5c-0.4-0.2-0.8-0.5-1.2-0.9c-4.9-3-9.6-5-14.1-5.9
		c-4.5-0.9-8.4-1.4-11.9-1.4c-6.3,0-12,1.1-17.1,3.4c-5.1,2.3-9.5,5.4-13.1,9.5c-3.6,4-6.4,8.8-8.4,14.4C1,44.3,0,50.2,0,56.7
		c0,6.5,1,12.4,3.1,17.7c2,5.3,5,9.7,8.8,13.4c3.8,3.7,8.5,6.5,13.9,8.4c5.5,2,11.7,2.9,18.6,2.9c4,0,7.9-0.4,11.7-1.3
		c3.8-0.9,7.9-2.4,12.4-4.6c0.6-0.2,1.1-0.6,1.7-1c0.6-0.4,1.1-0.9,1.6-1.3c0.6-0.5,1.1-1,1.6-1.5l2.4,3.1c0.2,0.2,0.4,0.3,0.6,0.3
		c0.2,0,0.4,0.1,0.6,0.1c0.2,0,0.4,0,0.5-0.1c0.1-0.1,0.3-0.3,0.7-0.7c0.2-0.2,0.3-0.6,0.4-1.2c0.1-0.5,0.2-0.9,0.2-1.2L82.1,71
		c0.1-0.2,0.2-0.6,0.2-1.2c0.1-0.5,0.1-1,0.1-1.3c0-0.4-0.1-0.7-0.2-0.8C82,67.6,81.8,67.5,81.6,67.4"/>
	<path class="logo-fill" d="M199.8,94.1l4.2-16.5c0.1-0.2,0.1-0.4,0.1-0.7c0-0.7-0.4-1.1-1.2-1.1h-0.5c-0.6,0.1-1.2,0.5-1.8,1.3
		c-0.6,0.8-1.5,2.2-2.8,4.2c-0.2,0.3-0.3,0.6-0.5,0.9l-0.5,0.9c-0.9,1.6-1.8,2.9-2.6,4.1c-0.9,1.2-1.9,2-3,2.4
		c-0.5,0.2-1.3,0.4-2.5,0.6c-1.2,0.2-2.5,0.3-4,0.4c-1.5,0.1-3.1,0.2-4.6,0.2c-1.6,0-3.1,0.1-4.5,0.1c-1.7,0-3.4,0-5-0.1
		c-1.6,0-3.1-0.1-4.3-0.3c-1.5-0.1-2.8-0.2-4-0.4c-0.4-1-0.7-1.9-0.9-2.8c-0.2-0.9-0.3-2.2-0.3-3.8V52.4h21.9c0.9,0,1.7,0.1,2.3,0.3
		c0.7,0.2,1,0.8,1.1,1.7v2.2c0,1.1,0,2.3,0.1,3.7c0.1,1.9,0.2,3.2,0.4,4c0.2,0.8,0.7,1.2,1.5,1.2c0.7,0,1.4-0.1,2-0.3
		c0.6-0.2,0.9-0.6,0.9-1.3c0-0.7,0-1.4-0.1-2.3c0-0.9-0.1-1.8-0.2-2.8c-0.1-0.9-0.1-1.8-0.2-2.7c0-0.9-0.1-1.5-0.1-2v-5.9
		c0-1.8,0-3.2,0.1-4.2c0-1,0.1-1.9,0.1-2.6c0-0.7,0.1-1.4,0.1-2c0-0.6,0.1-1.3,0.1-2.2c0-0.7-0.2-1.2-0.6-1.4
		c-0.4-0.2-1.1-0.3-2-0.3c-0.7,0-1.2,0.1-1.5,0.4c-0.4,0.2-0.6,0.8-0.6,1.7c-0.1,0.6-0.1,1.2-0.1,1.8c0,0.6,0,1.2-0.1,1.8
		c0,0.7-0.1,1.3-0.1,1.8c-0.1,0.7-0.3,1.4-0.7,2.2c-0.4,0.8-1.1,1.2-2.3,1.2c-0.9,0-2,0-3.2,0.1c-1.3,0.1-2.8,0.1-4.7,0.1h-14.3
		V21.5c0-0.7,0.2-1.1,0.6-1.3c0.4-0.2,1.2-0.3,2.6-0.3h19.9c1.9,0,3.3,0.1,4.3,0.4c1,0.3,1.8,0.9,2.3,1.9l4.9,8.3
		c0.8,1.3,1.3,2.2,1.6,2.8c0.2,0.5,0.7,0.8,1.2,0.8c0.9,0,1.3-0.6,1.3-1.8c0-0.2-0.1-0.8-0.2-2c-0.1-1.2-0.3-2.6-0.5-4.2
		c-0.2-1.6-0.4-3.3-0.7-5.1c-0.2-1.8-0.5-3.3-0.6-4.6c-0.2-1.1-0.6-1.9-1.3-2.2c-0.7-0.3-1.5-0.5-2.4-0.5h-54.6
		c-0.4,0-0.8,0.1-1,0.4c-0.3,0.2-0.5,0.7-0.6,1.3v0.4c0,1.5,0.6,2.2,1.8,2.2h5.5c1,0,1.9,0.3,2.9,0.9c0.9,0.6,1.5,1.2,1.8,1.8
		c0.3,0.9,0.5,1.8,0.6,2.6c0,0.8,0.1,1.5,0.1,2.2v54.8c0,3.7-0.2,6.4-0.7,8.3c-0.5,1.9-1.3,3-2.4,3.4c-0.4,0.2-1.2,0.3-2.5,0.5
		c-1.3,0.2-2.4,0.3-3.5,0.5l-1.6,0.2c-0.6,0.1-1.1,0.3-1.2,0.6c-0.2,0.3-0.2,1-0.2,2c0,0.5,0.2,0.8,0.6,0.9c0.4,0.1,1,0.1,1.9,0.1
		H197c0.8,0,1.4-0.2,1.8-0.5C199.2,95.8,199.5,95.2,199.8,94.1"/>
	<path class="logo-fill" d="M290.4,52.9h-6.5V23.2c0-2.1,0.4-3.5,1.3-4c0.9-0.6,1.7-0.9,2.6-0.9c2,0,3.8,0.1,5.3,0.2
		c1.5,0.1,2.8,0.3,4,0.6c1.2,0.2,2.2,0.6,3.1,1c0.9,0.4,1.8,1,2.8,1.5c2.8,1.8,4.9,3.9,6.4,6.3c1.5,2.4,2.2,5.2,2.2,8.5
		c0,5.6-1.8,9.8-5.4,12.5C302.6,51.6,297.3,52.9,290.4,52.9 M347,87.7c-0.2,0-0.4,0.2-0.7,0.5c-1.1,1.1-2.3,1.9-3.5,2.4
		c-1.2,0.5-2.3,0.7-3.5,0.7c-0.5,0-1.1-0.1-2-0.2c-1.4-0.4-2.8-1.3-4.3-2.7c-1.5-1.4-3.1-3.6-5-6.7c-1.6-2.6-3.4-5.3-5.2-7.9
		c-1.8-2.7-3.8-5.3-5.9-7.9c-1.1-1.2-2.3-2.4-3.6-3.7c-1.3-1.2-2.7-2.4-4-3.4c-1.5-1.2-3-2.4-4.5-3.5c6.9-2,11.8-4.6,14.6-8.1
		c2.8-3.4,4.2-7.6,4.2-12.5c0-3.1-0.7-5.9-2.1-8.6c-1.4-2.6-3.4-4.8-5.9-6.7c-2.5-1.9-5.6-3.3-9.1-4.4c-3.5-1.1-7.4-1.6-11.6-1.6
		c-2.2,0-4.6,0.1-7.1,0.4c-2,0.2-4,0.4-5.8,0.6c-1.8,0.2-3.9,0.4-6.1,0.4h-5.6c-1,0-2,0-2.9-0.1h-4.6c-1,0-1.6,0.2-1.9,0.6
		c-0.3,0.4-0.4,0.8-0.4,1.4v0.2c0,0.7,0.1,1.2,0.2,1.7c0.2,0.5,0.8,0.7,2,0.7h0.6c1.2,0,2.4,0.1,3.5,0.2c1.1,0.1,2.1,0.4,2.9,0.9
		c0.9,0.5,1.5,1.1,2,1.9c0.5,0.8,0.7,2,0.7,3.4V87c0,2.1-0.3,3.6-0.8,4.5c-0.5,0.9-2.1,1.3-4.7,1.4h-3.7c-0.4,0-0.7,0.2-1,0.7
		c-0.2,0.5-0.4,1-0.4,1.6c0,1.1,0.5,1.6,1.5,1.6h2c1.2,0,2.7,0,4.6-0.1h1.6c1,0,2.1,0,3.5,0.1c1.3,0,2.7,0.1,4.2,0.1
		c1.4,0,2.6,0.1,3.6,0.1l11.4,0.5c0.6,0,1,0,1.4,0.1c0.4,0,0.7,0.1,1,0.1c0.8,0,1.3-0.3,1.3-1v-0.5c0-0.6-0.1-1.2-0.2-2
		c-0.2-0.7-0.5-1.1-1-1.1l-6.2-0.4c-1.6-0.1-2.9-0.3-3.7-0.5c-0.9-0.3-1.5-0.8-2-1.5c-0.4-0.7-0.7-1.8-0.8-3.2
		c-0.1-1.4-0.1-3.3-0.1-5.6V56.8h2.1c2.4,0,4.4,0,6.1,0.1c1.7,0.1,3,0.4,3.9,1c1,0.7,1.9,1.5,2.9,2.6c0.9,1.1,2.2,2.7,3.7,4.8
		c3.7,5.1,6,8.4,7,9.9l7.2,10.3c1.1,1.5,2.2,3,3.3,4.5c1.1,1.4,2.4,2.7,3.9,3.8c1.4,1.1,3,2,4.8,2.7c1.8,0.7,3.9,1.1,6.2,1.2h0.6
		c1.4,0,2.8-0.2,4.2-0.6c1.4-0.4,2.6-1,3.8-1.8c1.1-0.8,2.1-1.7,2.9-2.7c0.8-1.1,1.2-2.2,1.4-3.5v-0.3
		C347.8,88.1,347.6,87.7,347,87.7"/>
	<path class="logo-fill" d="M453.8,75.8h-0.5c-0.6,0.1-1.2,0.5-1.8,1.3c-0.6,0.8-1.5,2.2-2.7,4.2c-0.2,0.3-0.3,0.6-0.5,0.9l-0.5,0.9
		c-0.9,1.6-1.8,2.9-2.6,4.1c-0.9,1.2-1.9,2-3,2.4c-0.5,0.2-1.3,0.4-2.5,0.6s-2.5,0.3-4,0.4c-1.5,0.1-3.1,0.2-4.6,0.2
		c-1.6,0-3.1,0.1-4.5,0.1c-1.7,0-3.4,0-5-0.1c-1.6,0-3.1-0.1-4.3-0.3c-1.5-0.1-2.8-0.2-4-0.4c-0.4-1-0.7-1.9-0.9-2.8
		c-0.2-0.9-0.3-2.2-0.3-3.8V52.4h21.9c0.9,0,1.7,0.1,2.3,0.3c0.7,0.2,1,0.8,1.1,1.7v2.2c0,1.1,0,2.3,0.1,3.7c0.1,1.9,0.2,3.2,0.4,4
		c0.2,0.8,0.7,1.2,1.5,1.2c0.7,0,1.4-0.1,2-0.3c0.6-0.2,0.9-0.6,0.9-1.3c0-0.7,0-1.4-0.1-2.3c0-0.9-0.1-1.8-0.2-2.8
		c-0.1-0.9-0.1-1.8-0.2-2.7s-0.1-1.5-0.1-2v-5.9c0-1.8,0-3.2,0.1-4.2c0-1,0.1-1.9,0.1-2.6c0-0.7,0.1-1.4,0.1-2
		c0-0.6,0.1-1.3,0.1-2.2c0-0.7-0.2-1.2-0.6-1.4c-0.4-0.2-1.1-0.3-2-0.3c-0.7,0-1.2,0.1-1.5,0.4c-0.4,0.2-0.5,0.8-0.5,1.7
		c-0.1,0.6-0.1,1.2-0.1,1.8c0,0.6,0,1.2-0.1,1.8c0,0.7-0.1,1.3-0.1,1.8c-0.1,0.7-0.3,1.4-0.7,2.2c-0.4,0.8-1.1,1.2-2.3,1.2
		c-0.9,0-2,0-3.2,0.1c-1.3,0.1-2.8,0.1-4.7,0.1h-14.3V21.5c0-0.7,0.2-1.1,0.5-1.3c0.4-0.2,1.2-0.3,2.6-0.3h19.9
		c1.9,0,3.3,0.1,4.3,0.4c1,0.3,1.8,0.9,2.3,1.9l4.9,8.3c0.8,1.3,1.3,2.2,1.6,2.8s0.7,0.8,1.2,0.8c0.9,0,1.3-0.6,1.3-1.8
		c0-0.2-0.1-0.8-0.2-2c-0.1-1.2-0.3-2.6-0.5-4.2c-0.2-1.6-0.4-3.3-0.7-5.1c-0.2-1.8-0.4-3.3-0.6-4.6c-0.2-1.1-0.6-1.9-1.3-2.2
		c-0.7-0.3-1.5-0.5-2.4-0.5h-54.6c-0.4,0-0.8,0.1-1,0.4c-0.3,0.2-0.5,0.7-0.6,1.3v0.4c0,1.5,0.6,2.2,1.8,2.2h5.5
		c1,0,1.9,0.3,2.9,0.9c0.9,0.6,1.5,1.2,1.8,1.8c0.3,0.9,0.5,1.8,0.6,2.6c0,0.8,0.1,1.5,0.1,2.2v54.8c0,3.7-0.2,6.4-0.7,8.3
		c-0.5,1.9-1.3,3-2.4,3.4c-0.4,0.2-1.2,0.3-2.5,0.5c-1.3,0.2-2.4,0.3-3.5,0.5l-1.6,0.2c-0.7,0.1-1.1,0.3-1.2,0.6
		c-0.2,0.3-0.2,1-0.2,2c0,0.5,0.2,0.8,0.6,0.9c0.4,0.1,1,0.1,1.9,0.1h56.1c0.8,0,1.4-0.2,1.8-0.5c0.4-0.3,0.7-1,1-2.1l4.2-16.5
		c0.1-0.2,0.1-0.4,0.1-0.7C455,76.1,454.6,75.8,453.8,75.8"/>
	<path class="logo-fill" d="M603.6,96.7c1.8,0.1,3.5,0.2,5.3,0.2c2.1,0.2,4.4,0.3,6.8,0.4c0.4,0,0.7-0.3,0.7-1c0.1-0.7,0.1-1.3,0.1-1.8
		v-0.6c-0.1-0.4-0.4-0.7-1-0.8c-0.6-0.1-1.6-0.3-2.9-0.4c-3.4-0.4-5.6-0.9-6.6-1.6c-0.7-0.6-1.1-1.7-1.3-3.5
		c-0.2-1.8-0.3-3.2-0.3-4.2V22.8c0-1.4,0.4-2.5,1.1-3.4c0.7-0.9,1.5-1.4,2.3-1.5c1.1-0.1,2.2-0.2,3.4-0.2c1.2-0.1,2.4-0.1,3.4-0.1
		c0.4,0,0.7-0.3,0.9-0.9c0.2-0.6,0.3-1.1,0.3-1.6c0-0.5,0-0.9-0.1-1.3c-0.1-0.4-0.3-0.6-0.7-0.6h-19.3c-1.7,3.5-3.9,8.3-6.7,14.5
		c-2.7,6.2-6.4,14-10.9,23.4c-0.7,1.2-1.6,3.2-2.9,6.1c-1.3,2.8-2.7,5.8-4.2,9c-1.5,3.2-2.9,6.2-4.3,9c-1.4,2.9-2.4,5-3.2,6.4
		l-36.6-68.3h-21.1c-0.3,0-0.5,0.2-0.6,0.5c0,0.3-0.1,0.7-0.1,1.1v0.9c0,0.8,0.2,1.2,0.6,1.2c2.4,0,4.7,0.2,6.7,0.7
		c2,0.5,3.4,1.1,4,1.8c0.7,0.7,1.4,1.7,1.9,2.8c0.5,1.1,1,2.3,1.4,3.6c0.4,1.3,0.7,2.5,0.9,3.7c0.2,1.2,0.3,2.1,0.3,2.9
		c-0.1,3.4-0.1,7-0.1,10.6c-0.1,3.1-0.1,6.5-0.1,10.3v10.9c0,0.9-0.1,2.6-0.2,5.2c-0.1,2.6-0.3,5.3-0.6,8.2c-0.3,2.9-0.6,5.6-1,8.1
		c-0.4,2.5-0.9,4.1-1.5,5c-0.5,0.7-1.1,1.1-2,1.5c-0.8,0.3-1.7,0.6-2.6,0.7c-0.9,0.2-1.9,0.3-2.9,0.3c-1,0-1.9,0.1-2.7,0.3
		c-0.7,0.1-1,0.2-1.2,0.5c-0.1,0.2-0.2,0.5-0.2,0.9v0.7c0,0.6,0.1,1,0.2,1.2c0.1,0.2,0.6,0.4,1.4,0.4c0.9,0,1.7,0,2.4-0.1
		c0.7,0,1.4-0.1,2.1-0.1c0.7,0,1.5-0.1,2.4-0.1c0.9,0,1.9-0.1,3.1-0.1c1.8,0,3.3,0,4.4-0.1c1.1,0,1.9-0.1,2.3-0.1
		c0.4,0,1.1,0,2.1,0.1c1,0,2.1,0.1,3.3,0.1c1.2,0,2.3,0.1,3.4,0.2c1.1,0.1,1.9,0.1,2.4,0.1h1c0.9,0,1.5-0.1,1.7-0.4
		c0.2-0.3,0.4-0.6,0.4-1v-0.4c-0.1-0.9-0.2-1.5-0.3-1.8s-0.4-0.4-0.8-0.4c-1.9-0.1-3.7-0.3-5.4-0.8c-1.8-0.4-3.1-1.2-4-2.4
		c-1.1-1.4-1.7-4.1-1.9-8c-0.2-4-0.3-8.4-0.3-13.3L526,34.8l32.5,61.9c0.6,0.9,1.3,1.3,2.2,1.3c0.8,0,1.4-0.4,1.7-1.3l31.3-67v58.7
		c0,1.1-0.3,2-1,2.7c-0.7,0.7-1.4,1.2-2.3,1.5l-6,0.7c-0.9,0.2-1.3,0.6-1.3,1.3v0.7c0,0.6,0.1,1,0.4,1.3c0.2,0.3,0.9,0.5,2.1,0.5
		c0.3,0,1,0,2-0.1c1-0.1,2.2-0.1,3.5-0.2c1.3,0,2.8-0.1,4.3-0.2c1.5-0.1,3.1-0.1,4.5-0.1C600.6,96.5,601.8,96.6,603.6,96.7"/>
	<path class="logo-fill" d="M737.7,73.4c-1.3,4.5-3.3,8.3-5.7,11.5c-2.5,3.2-5.6,5.6-9.2,7.3c-3.7,1.7-7.8,2.6-12.5,2.6
		c-11.6,0-20.3-4-26.2-11.9c-5.9-7.9-8.9-19.5-8.9-34.8c0-10.6,2.8-18.8,8.6-24.6c5.7-5.8,13.7-8.7,24.1-8.7c4.8,0,9.2,1,13.1,3.1
		c3.9,2.1,7.3,5,10.1,8.8c2.8,3.8,5,8.4,6.5,13.7c1.5,5.4,2.3,11.4,2.3,18.1C739.8,64,739.1,69,737.7,73.4 M739.7,23.1
		c-3.9-4-8.5-7.2-14-9.5c-5.5-2.3-11.5-3.4-18.2-3.4c-6.8,0-13,1.1-18.5,3.2c-5.5,2.1-10.1,5.1-13.9,9c-3.8,3.9-6.7,8.6-8.7,14.1
		c-2,5.5-3,11.6-3,18.4v2.3c0,0.6,0.1,1.3,0.2,2.3c0.5,5.6,1.9,10.9,4.3,15.8c2.4,4.9,5.6,9.2,9.5,12.8c4,3.6,8.6,6.4,13.8,8.5
		c5.3,2.1,11,3.1,17.2,3.1c6.4,0,12.2-1.2,17.5-3.5c5.3-2.3,9.9-5.5,13.7-9.5c3.8-4,6.8-8.8,8.9-14.2c2.1-5.4,3.2-11.3,3.2-17.5
		c0-6.4-1.1-12.3-3.2-17.7C746.6,31.9,743.6,27.2,739.7,23.1"/>
	<path class="logo-fill" d="M889.2,12.7c-0.3-0.2-1.2-0.4-2.6-0.4c-0.8,0-1.7,0-2.8,0.1s-2,0.2-3.1,0.2c-1,0.1-2,0.2-2.9,0.3
		c-0.9,0.1-1.7,0.2-2.3,0.2h-1c-0.6,0-1.1,0-1.5-0.1c-0.5,0-1-0.1-1.8-0.2c-0.7-0.1-1.8-0.2-3.1-0.2c-1.3-0.1-3.2-0.2-5.6-0.2
		c-0.8,0-1.4,0.1-1.8,0.4c-0.4,0.2-0.6,0.8-0.6,1.7c0,0.9,0.2,1.4,0.5,1.7c0.3,0.2,1.3,0.4,2.9,0.6c1.5,0.2,3,0.6,4.5,1.3
		c1.4,0.7,2.3,1.3,2.8,1.9c0.4,0.6,0.8,1.5,1,2.7c0.3,1.2,0.4,2.4,0.4,3.5v51c0.1,0.2,0.1,0.5,0.1,0.9c0,0.6-0.2,0.9-0.5,0.9
		c-0.2,0-0.5-0.1-0.8-0.4c-0.3-0.2-0.6-0.5-0.9-0.7c-1-0.8-2.3-2.1-4-4c-1.7-1.8-3.5-4-5.6-6.4c-2.1-2.4-4.3-5.1-6.6-7.8
		c-2.3-2.8-4.6-5.5-6.8-8.2c-2.2-2.7-4.4-5.2-6.4-7.6c-2-2.4-3.7-4.5-5.1-6.2l-20.4-24.2h-19.7c-0.5,0-0.7,0.5-0.7,1.5
		c0,0.1,0,0.2-0.1,0.3c0,0.1-0.1,0.3-0.1,0.6c0,0.2,0,0.5,0.1,0.7c0.1,0.2,0.2,0.5,0.5,0.6c0.6,0.2,1.3,0.4,2.2,0.4
		c0.9,0,2.2,0.3,3.8,0.7c1.2,0.3,2.4,0.9,3.6,1.7c1.2,0.8,2.3,1.6,3.2,2.6c1,0.9,1.8,1.9,2.6,2.9c0.7,1,1.3,1.8,1.8,2.6L811,64.1
		c-0.2,5.3-0.5,9.7-0.9,13.1c-0.3,3.5-0.7,6.2-1.1,8.3c-0.4,2.1-0.9,3.6-1.5,4.5c-0.6,0.9-1.3,1.6-2.1,1.9c-0.5,0.2-1.1,0.3-2,0.6
		c-0.8,0.2-1.7,0.4-2.5,0.7c-0.9,0.2-1.6,0.5-2.3,0.7c-0.7,0.2-1.1,0.4-1.3,0.6c-0.1,0.2-0.1,0.5-0.1,1c0,0.6,0.1,1.2,0.4,1.8
		c0.3,0.6,0.8,0.9,1.7,0.9l0.5-0.1c3.7-0.7,6.5-1,8.4-1.1c1.9-0.1,3.5-0.1,4.7-0.1c0.6,0,1.5,0.1,2.7,0.2c1.3,0.1,2.7,0.3,4.2,0.4
		c1.5,0.2,3.2,0.3,4.8,0.5c1.7,0.2,3.2,0.3,4.5,0.4c0.4,0,0.7-0.3,1-0.8c0.2-0.5,0.4-1,0.4-1.3c0-1.1-0.6-1.8-1.7-2.1l-1-0.2
		c-1.8-0.4-3.5-0.8-5.1-1.2c-1.6-0.4-2.7-0.9-3.2-1.5c-1.1-1.1-2-2.7-2.7-4.8c-0.7-2-1-4.6-1-7.6c0-0.4,0-1.1,0.1-2.2
		c0-1.1,0.1-2.3,0.1-3.7c0-1.4,0.1-2.9,0.1-4.5c0-1.6,0.1-3.1,0.1-4.6c0.1-1.9,0.2-4.5,0.4-7.8c0.2-3.3,0.4-6.5,0.7-9.7
		c0.3-3.7,0.6-7.7,0.9-11.7l42.3,49.6l12.8,14.3c1.1,1,2,1.5,2.9,1.5c0.7,0,1.3-0.3,1.7-0.9c0.4-0.6,0.6-1.4,0.6-2.3v-72
		c0-2,0.2-3.5,0.5-4.3c0.3-0.9,1.3-1.8,2.9-2.7c0.9-0.5,2-0.9,3.2-1.2c1.2-0.3,2-0.4,2.3-0.4c0.7,0,1.3-0.1,1.7-0.3
		c0.4-0.2,0.5-0.7,0.5-1.4v-0.5C889.8,13.3,889.6,12.8,889.2,12.7"/>
	<path class="logo-fill" d="M1012.4,13.1c-0.1-0.3-0.4-0.4-0.9-0.4c-0.4,0-1.1,0-2,0.1c-0.9,0.1-1.9,0.2-3,0.2c-1.1,0.1-2.2,0.2-3.3,0.2
		c-1.1,0.1-2,0.1-2.8,0.1h-5.4c-1.3,0-2.7,0-4.2-0.1h-2.3c-0.7,0.1-1,0.3-1.2,0.6c-0.1,0.3-0.2,0.7-0.2,1.2s0.1,0.9,0.2,1.2
		c0.1,0.3,0.6,0.5,1.4,0.6l2.6,0.1c0.9,0.1,1.7,0.5,2.5,1.3c0.8,0.8,1.2,1.7,1.2,2.6c0,2.1-0.7,4.6-2.1,7.6c-0.5,0.9-1.1,2.1-2,3.7
		c-0.8,1.5-1.7,3-2.6,4.5c-1,1.7-2,3.5-3.2,5.4l-9.5,13.6L962.2,33c-1.6-2.7-2.9-5-3.8-6.9c-0.9-1.9-1.3-3.3-1.3-4.2
		c0-1.4,0.5-2.6,1.5-3.5c1-1,2.4-1.5,4.1-1.6c1-0.1,1.6-0.2,1.8-0.5c0.2-0.2,0.4-0.6,0.4-1v-0.7c0-0.7-0.1-1.2-0.4-1.5
		c-0.2-0.2-0.8-0.4-1.6-0.4c-0.7,0-1.7,0-2.9,0.1c-1.2,0.1-2.4,0.2-3.7,0.2c-1.3,0.1-2.5,0.2-3.7,0.2c-1.1,0.1-2,0.1-2.7,0.1h-3.9
		h-5.2c-1.7,0-3,0-3.8-0.1h-0.1c-0.6,0-0.9,0.2-1.1,0.7c-0.2,0.4-0.2,1-0.2,1.5c0,0.9,0.2,1.4,0.7,1.5c0.4,0.1,0.8,0.2,1.1,0.2
		c0.3,0.1,0.7,0.2,1,0.2c0.3,0.1,0.6,0.2,0.9,0.2c1.1,0.4,2,1,2.8,1.7c0.8,0.7,1.5,1.6,2.1,2.5c0.7,0.9,1.3,1.9,1.8,2.9
		c0.6,1,1.1,1.9,1.6,2.8c1.5,2.4,3,5,4.6,7.9c1.6,2.9,3.2,5.7,4.7,8.4c1.5,2.7,2.9,5.1,4,7.3c1.2,2.2,2,3.6,2.5,4.5
		c1.6,2.6,2.7,4.8,3.2,6.6c0.5,1.8,0.8,3.1,0.8,4V81c0,2.4,0,4.5-0.1,6.3c0,1.8-0.2,3-0.6,3.4c-0.6,0.8-1.4,1.5-2.6,2
		c-1.2,0.5-2.1,0.8-2.9,0.9c-0.7,0.1-1.4,0.1-2,0.2c-0.6,0-1,0.1-1.3,0.1c-0.8,0-1.3,0.1-1.5,0.4c-0.2,0.3-0.3,0.6-0.3,0.9v0.5
		c0,0.7,0.1,1.2,0.2,1.5c0.2,0.3,0.7,0.4,1.7,0.4h0.6c1.1-0.1,2.4-0.2,3.7-0.2c1.3-0.1,2.7-0.2,4.1-0.2c1.4-0.1,2.7-0.2,4-0.2
		c1.3-0.1,2.4-0.1,3.4-0.1c0.7,0,1.8,0,3.1,0.1c1.3,0.1,2.7,0.2,4.1,0.2c1.5,0.1,3.3,0.2,5.1,0.2l3.4,0.1c0.6,0,1-0.1,1.2-0.4
		c0.1-0.3,0.2-0.6,0.2-0.9v-0.4c0-0.6-0.1-1.1-0.2-1.5c-0.1-0.4-0.5-0.7-1.2-0.7l-3.3-0.2c-1.8-0.1-3.3-0.3-4.5-0.7
		c-1.2-0.4-2.1-0.9-2.7-1.7c-0.7-0.7-1.1-1.7-1.4-2.9c-0.3-1.2-0.4-2.6-0.4-4.3v-22c1.5-2.1,3.1-4.5,4.9-7.3
		c1.8-2.7,3.7-5.6,5.6-8.6c2-3,4-6.1,6-9.3c2.1-3.2,4.1-6.2,6-9.2c1.7-2.6,3.3-4.8,4.7-6.4c1.4-1.7,2.4-2.7,3.1-3.1
		c0.3-0.2,0.8-0.5,1.5-0.9c0.7-0.4,1.4-0.6,2.3-0.6c0.5,0,0.8-0.1,0.9-0.4c0.1-0.3,0.2-0.6,0.2-0.9v-0.5
		C1012.6,13.9,1012.5,13.4,1012.4,13.1"/>
</g>
</svg>
