 <svg xmlns="http://www.w3.org/2000/svg" xmlns:xlink="http://www.w3.org/1999/xlink" width="20px" height="20px" viewBox="0 0 20 20" version="1.1" class="svg svg-icon replaced-svg">
                                <!-- Generator: Sketch 42 (36781) - http://www.bohemiancoding.com/sketch -->
                                <title>Group 4</title>
                                <desc>Created with Sketch.</desc>
                                <defs></defs>
                                <g id="Page-1" stroke="none" stroke-width="1" fill="none" fill-rule="evenodd">
                                    <g id="Store" transform="translate(-336.000000, -86.000000)">
                                        <g id="Group-4" transform="translate(330.000000, 80.000000)">
                                            <rect id="Rectangle-7-Copy-3" x="0" y="0" width="32" height="32"></rect>
                                            <g id="search-bar" transform="translate(6.000000, 6.000000)" fill="rgba(255,255,255,0.8)">
                                                <path d="M7.73729127,0.464479203 L7.82977635,0.466274333 L7.92204602,0.469218346 L8.01395667,0.473239437 L8.10558009,0.478481215 L8.19691629,0.484871877 L8.28796527,0.492339617 L8.37865522,0.501028045 L8.46898615,0.510721746 L8.55895805,0.521636134 L8.64864274,0.533555796 L8.73796839,0.546696146 L8.82693502,0.560841768 L8.91554263,0.576064468 L9.0037194,0.592436051 L9.09160895,0.609812907 L9.17906767,0.628266841 L9.26609556,0.647797853 L9.35276443,0.668405942 L9.43900246,0.690019304 L9.52480966,0.712637939 L9.61018603,0.736333651 L9.69520338,0.761034637 L9.77971808,0.786740895 L9.86380196,0.813452425 L9.94745501,0.841241034 L10.0306772,0.869963109 L10.1133968,0.899618653 L10.1956137,0.930351274 L10.2773999,0.962017362 L10.3586833,0.994616919 L10.4394642,1.02822175 L10.5197424,1.06276004 L10.5995179,1.09823181 L10.6787909,1.13463704 L10.7574894,1.17197574 L10.835757,1.2102479 L10.9133784,1.24945354 L10.990569,1.28959264 L11.0671133,1.3305934 L11.143155,1.37245583 L11.2186223,1.41525172 L11.2935151,1.45890927 L11.3678335,1.5035003 L11.4415774,1.54888118 L11.5146751,1.59512372 L11.5872701,1.64229973 L11.6591471,1.6902656 L11.7305215,1.73902132 L11.8011778,1.78871051 L11.8712596,1.83918956 L11.9406953,1.89045846 L12.0094846,1.94251723 L12.0776278,1.99543765 L12.1451246,2.04914793 L12.2119753,2.10357627 L12.2781079,2.15886626 L12.3435942,2.21494612 L12.4083625,2.27174402 L12.4724845,2.32933178 L12.5358885,2.3876376 L12.5985744,2.44673327 L12.6606141,2.50647519 L12.7218639,2.56707877 L12.7823957,2.62832859 L12.8422094,2.69029647 L12.9013051,2.75305421 L12.9596109,2.81645819 L13.0171987,2.88050842 L13.0739966,2.94534851 L13.1300764,3.01083484 L13.1852946,3.07696742 L13.2397948,3.14381805 L13.293505,3.21131493 L13.3464255,3.27945805 L13.3984842,3.34824742 L13.4497531,3.41768304 L13.5002322,3.48776491 L13.5498496,3.55842121 L13.5986771,3.62972377 L13.646643,3.70167257 L13.6937472,3.77419581 L13.7400615,3.8473653 L13.7854424,3.92110923 L13.8299616,3.9954276 L13.873691,4.07032041 L13.9164869,4.14578767 L13.9583493,4.22182936 L13.9993501,4.29837369 L14.0394892,4.37549247 L14.078623,4.45318568 L14.1168951,4.53138153 L14.1543057,4.61015183 L14.1907109,4.68942476 L14.2261826,4.76920032 L14.2607209,4.84947852 L14.2943258,4.93025936 L14.3269253,5.01154284 L14.3585914,5.09332895 L14.389324,5.17554589 L14.4189796,5.25826547 L14.4477017,5.34148768 L14.4754903,5.42506893 L14.5022018,5.50922461 L14.5279081,5.59373932 L14.552609,5.67868485 L14.5763048,5.76413303 L14.5989234,5.84994023 L14.6205367,5.93617826 L14.6411448,6.02284713 L14.6606759,6.10987502 L14.6791298,6.19733374 L14.6965066,6.28515149 L14.7128782,6.37340006 L14.7281009,6.46200767 L14.7422465,6.5509743 L14.7553151,6.64029995 L14.7673066,6.72991283 L14.7781491,6.81995654 L14.7879146,6.91028747 L14.7965313,7.00097742 L14.8040708,7.0920264 L14.8104615,7.1833626 L14.8156314,7.27498603 L14.8197243,7.36689667 L14.8226684,7.45916634 L14.8243917,7.55165142 L14.8250379,7.64449553 L14.8243917,7.73726784 L14.8226684,7.82982473 L14.8197243,7.92202259 L14.8156314,8.01400504 L14.8104615,8.10562846 L14.8040708,8.19696466 L14.7965313,8.28794184 L14.7879146,8.37863179 L14.7781491,8.46896272 L14.7673066,8.55900643 L14.7553151,8.64869111 L14.7422465,8.73801677 L14.7281009,8.8269834 L14.7128782,8.91551919 L14.6965066,9.00376777 L14.6791298,9.09158552 L14.6606759,9.17904424 L14.6411448,9.26607213 L14.6205367,9.35274099 L14.5989234,9.43897903 L14.5763048,9.52485803 L14.552609,9.6102344 L14.5279081,9.69517994 L14.5022018,9.77976646 L14.4754903,9.86385033 L14.4477017,9.94750338 L14.4189796,10.0306538 L14.389324,10.1133734 L14.3585914,10.1955903 L14.3269253,10.2773764 L14.2943258,10.3586599 L14.2607209,10.4394407 L14.2261826,10.5197189 L14.1907109,10.5994945 L14.1543057,10.6787674 L14.1168951,10.7575377 L14.078623,10.8357336 L14.0394892,10.9134268 L13.9993501,10.9905456 L13.9583493,11.0671617 L13.9164869,11.1431316 L13.873691,11.2185988 L13.8299616,11.2934917 L13.7854424,11.36781 L13.7400615,11.441554 L13.6937472,11.5147234 L13.646643,11.5872467 L13.5986771,11.6591955 L13.5498496,11.730498 L13.5002322,11.8011544 L13.4497531,11.8712362 L13.3984842,11.9406718 L13.3464255,12.0094612 L13.293505,12.0776043 L13.2397948,12.1451012 L13.1852946,12.2119518 L13.1300764,12.2780844 L13.0739966,12.3435708 L13.0171987,12.4084108 L12.9596109,12.4724611 L12.9013051,12.5358651 L12.8422094,12.5986228 L12.7823957,12.6605907 L12.7218639,12.7218405 L12.6606141,12.7824441 L12.5985744,12.8422578 L12.5358885,12.9012817 L12.4724845,12.9595875 L12.4083625,13.0171752 L12.3435942,13.0739731 L12.2781079,13.130053 L12.2119753,13.185343 L12.1451246,13.2397713 L12.0776278,13.2934816 L12.0094846,13.346402 L11.9406953,13.3984608 L11.8712596,13.4497297 L11.8011778,13.5002087 L11.7305215,13.5498261 L11.6591471,13.5986537 L11.5872701,13.6466195 L11.5146751,13.6937955 L11.4415774,13.7400381 L11.3678335,13.785419 L11.2935151,13.83001 L11.2186223,13.8736675 L11.143155,13.9164634 L11.0671133,13.9583259 L10.990569,13.9993266 L10.9133784,14.0394657 L10.835757,14.0786714 L10.7574894,14.1169435 L10.6787909,14.1542822 L10.5995179,14.1906875 L10.5197424,14.2261592 L10.4394642,14.2606975 L10.3586833,14.2943023 L10.2773999,14.3269019 L10.1956137,14.358568 L10.1133968,14.3893006 L10.0306772,14.4189561 L9.94745501,14.4476782 L9.86380196,14.4754668 L9.77971808,14.5021784 L9.69520338,14.5278846 L9.61018603,14.5525856 L9.52480966,14.5762813 L9.43900246,14.5989 L9.35276443,14.6205133 L9.26609556,14.6411214 L9.17906767,14.6606524 L9.09160895,14.6791064 L9.0037194,14.6964832 L8.91554263,14.7128548 L8.82693502,14.7280775 L8.73796839,14.7422231 L8.64864274,14.7552917 L8.55895805,14.7672831 L8.46898615,14.7781975 L8.37865522,14.7878912 L8.28796527,14.7965796 L8.19691629,14.8040474 L8.10558009,14.810438 L8.01395667,14.8156798 L7.92204602,14.8197009 L7.82977635,14.8226449 L7.73729127,14.8243683 L7.64444716,14.8250145 L7.55167485,14.8243683 L7.45911797,14.8226449 L7.3669201,14.8197009 L7.27493765,14.8156798 L7.18331423,14.810438 L7.09197803,14.8040474 L7.00100086,14.7965796 L6.9103109,14.7878912 L6.81990817,14.7781975 L6.72993626,14.7672831 L6.64025158,14.7552917 L6.55092593,14.7422231 L6.4619593,14.7280775 L6.3734235,14.7128548 L6.28517492,14.6964832 L6.19735717,14.6791064 L6.10989845,14.6606524 L6.02287056,14.6411214 L5.9362017,14.6205133 L5.84996367,14.5989 L5.76415646,14.5762813 L5.67870829,14.5525856 L5.59376275,14.5278846 L5.50917624,14.5021784 L5.42509236,14.4754668 L5.34143931,14.4476782 L5.2582889,14.4189561 L5.17556932,14.3893006 L5.09335238,14.358568 L5.01156627,14.3269019 L4.9302828,14.2943023 L4.84950196,14.2606975 L4.76922376,14.2261592 L4.68944819,14.1906875 L4.61017526,14.1542822 L4.53140497,14.1169435 L4.45320912,14.0786714 L4.3755159,14.0394657 L4.29839713,13.9993266 L4.2218528,13.9583259 L4.1458111,13.9164634 L4.07034384,13.8736675 L3.99545103,13.83001 L3.92113266,13.785419 L3.84738873,13.7400381 L3.77429105,13.6937955 L3.701696,13.6466195 L3.62981901,13.5986537 L3.55844465,13.5498261 L3.48778834,13.5002087 L3.41770648,13.4497297 L3.34827086,13.3984608 L3.27948149,13.346402 L3.21133836,13.2934816 L3.14384148,13.2397713 L3.07699085,13.185343 L3.01085827,13.130053 L2.94537194,13.0739731 L2.88060366,13.0171752 L2.81648162,12.9595875 L2.75307764,12.9012817 L2.69039171,12.8422578 L2.62835203,12.7824441 L2.5671022,12.7218405 L2.50657042,12.6605907 L2.4467567,12.5986228 L2.38766103,12.5358651 L2.32935522,12.4724611 L2.27176745,12.4084108 L2.21496955,12.3435708 L2.1588897,12.2780844 L2.10367151,12.2119518 L2.04917137,12.1451012 L1.99546108,12.0776043 L1.94261247,12.0094612 L1.8904819,11.9406718 L1.83921299,11.8712362 L1.78873394,11.8011544 L1.73911656,11.730498 L1.69028903,11.6591955 L1.64232316,11.5872467 L1.59521896,11.5147234 L1.54890461,11.441554 L1.50352373,11.36781 L1.45900451,11.2934917 L1.41527515,11.2185988 L1.37255106,11.1431316 L1.33061683,11.0671617 L1.28961607,10.9905456 L1.24954877,10.9134268 L1.21034314,10.8357336 L1.17207098,10.7575377 L1.13466047,10.6787674 L1.09825524,10.5994945 L1.06278348,10.5197189 L1.02824518,10.4394407 L0.994640352,10.3586599 L0.962040795,10.2773764 L0.930374707,10.1955903 L0.899713891,10.1133734 L0.869986542,10.0306538 L0.841264466,9.94750338 L0.813547663,9.86385033 L0.786764327,9.77976646 L0.76105807,9.69517994 L0.736357084,9.6102344 L0.712661372,9.52485803 L0.690042737,9.43897903 L0.668429375,9.35274099 L0.647821285,9.26607213 L0.628290274,9.17904424 L0.60983634,9.09158552 L0.592459484,9.00376777 L0.576087901,8.91551919 L0.560865201,8.8269834 L0.546719578,8.73801677 L0.533651034,8.64869111 L0.521659567,8.55900643 L0.510816984,8.46896272 L0.501051478,8.37863179 L0.492434855,8.28794184 L0.48489531,8.19696466 L0.478504648,8.10562846 L0.473334675,8.01400504 L0.469241779,7.92202259 L0.466297766,7.82982473 L0.464574442,7.73726784 L0.464,7.64449553 L0.464574442,7.55165142 L0.466297766,7.45916634 L0.469241779,7.36689667 L0.473334675,7.27498603 L0.478504648,7.1833626 L0.48489531,7.0920264 L0.492434855,7.00097742 L0.501051478,6.91028747 L0.510816984,6.81995654 L0.521659567,6.72991283 L0.533651034,6.64029995 L0.546719578,6.5509743 L0.560865201,6.46200767 L0.576087901,6.37340006 L0.592459484,6.28515149 L0.60983634,6.19733374 L0.628290274,6.10987502 L0.647821285,6.02284713 L0.668429375,5.93617826 L0.690042737,5.84994023 L0.712661372,5.76413303 L0.736357084,5.67868485 L0.76105807,5.59373932 L0.786764327,5.50922461 L0.813547663,5.42506893 L0.841264466,5.34148768 L0.869986542,5.25826547 L0.899713891,5.17554589 L0.930374707,5.09332895 L0.962040795,5.01154284 L0.994640352,4.93025936 L1.02824518,4.84947852 L1.06278348,4.76920032 L1.09825524,4.68942476 L1.13466047,4.61015183 L1.17207098,4.53138153 L1.21034314,4.45318568 L1.24954877,4.37549247 L1.28961607,4.29837369 L1.33061683,4.22182936 L1.37255106,4.14578767 L1.41527515,4.07032041 L1.45900451,3.9954276 L1.50352373,3.92110923 L1.54890461,3.8473653 L1.59521896,3.77419581 L1.64232316,3.70167257 L1.69028903,3.62972377 L1.73911656,3.55842121 L1.78873394,3.48776491 L1.83921299,3.41768304 L1.8904819,3.34824742 L1.94261247,3.27945805 L1.99546108,3.21131493 L2.04917137,3.14381805 L2.10367151,3.07696742 L2.1588897,3.01083484 L2.21496955,2.94534851 L2.27176745,2.88050842 L2.32935522,2.81645819 L2.38766103,2.75305421 L2.4467567,2.69029647 L2.50657042,2.62832859 L2.5671022,2.56707877 L2.62835203,2.50647519 L2.69039171,2.44673327 L2.75307764,2.3876376 L2.81648162,2.32933178 L2.88060366,2.27174402 L2.94537194,2.21494612 L3.01085827,2.15886626 L3.07699085,2.10357627 L3.14384148,2.04914793 L3.21133836,1.99543765 L3.27948149,1.94251723 L3.34827086,1.89045846 L3.41770648,1.83918956 L3.48778834,1.78871051 L3.55844465,1.73902132 L3.62981901,1.6902656 L3.701696,1.64229973 L3.77429105,1.59512372 L3.84738873,1.54888118 L3.92113266,1.5035003 L3.99545103,1.45890927 L4.07034384,1.41525172 L4.1458111,1.37245583 L4.2218528,1.3305934 L4.29839713,1.28959264 L4.3755159,1.24945354 L4.45320912,1.2102479 L4.53140497,1.17197574 L4.61017526,1.13463704 L4.68944819,1.09823181 L4.76922376,1.06276004 L4.84950196,1.02822175 L4.9302828,0.994616919 L5.01156627,0.962017362 L5.09335238,0.930351274 L5.17556932,0.899618653 L5.2582889,0.869963109 L5.34143931,0.841241034 L5.42509236,0.813452425 L5.50917624,0.786740895 L5.59376275,0.761034637 L5.67870829,0.736333651 L5.76415646,0.712637939 L5.84996367,0.690019304 L5.9362017,0.668405942 L6.02287056,0.647797853 L6.10989845,0.628266841 L6.19735717,0.609812907 L6.28517492,0.592436051 L6.3734235,0.576064468 L6.4619593,0.560841768 L6.55092593,0.546696146 L6.64025158,0.533555796 L6.72993626,0.521636134 L6.81990817,0.510721746 L6.9103109,0.501028045 L7.00100086,0.492339617 L7.09197803,0.484871877 L7.18331423,0.478481215 L7.27493765,0.473239437 L7.3669201,0.469218346 L7.45911797,0.466274333 L7.55167485,0.464479203 L7.64444716,0.463904762 L7.73729127,0.464479203 Z M7.56524604,1.53437653 L7.64444716,1.53387389 L7.72372009,1.53437653 L7.8027058,1.53588444 L7.88133248,1.53832581 L7.95981555,1.54184427 L8.0379396,1.54629619 L8.11570462,1.55168158 L8.19325422,1.55807224 L8.27051661,1.56546818 L8.34749177,1.57372577 L8.42410791,1.58298864 L8.50036502,1.59318498 L8.57633491,1.60431478 L8.65201758,1.61637806 L8.72741303,1.62930299 L8.80244945,1.6432332 L8.87712685,1.65802507 L8.95144522,1.6736786 L9.02540457,1.6902656 L9.09900489,1.70778606 L9.17238979,1.72616819 L9.24534386,1.74541198 L9.31801071,1.76558924 L9.39024674,1.78655636 L9.46190831,1.80838513 L9.53328267,1.83107557 L9.60451342,1.85469948 L9.67531334,1.87911324 L9.74553881,1.90431687 L9.81533346,1.93038215 L9.88498449,1.9573809 L9.95406108,1.9850977 L10.0225632,2.01353256 L10.09085,2.04297269 L10.1587777,2.07313087 L10.2260591,2.1040789 L10.2931252,2.1358886 L10.3596886,2.16841635 L10.4256776,2.20173396 L10.4913793,2.23591323 L10.556363,2.27066694 L10.6211313,2.30642593 L10.6852533,2.34275935 L10.7489445,2.37988264 L10.8121331,2.41779578 L10.8748908,2.45642697 L10.9372177,2.49584802 L10.999042,2.53605892 L11.06022,2.57684427 L11.1208236,2.61834767 L11.1812836,2.66071273 L11.2407383,2.70350863 L11.2999058,2.74723799 L11.3585706,2.7916854 L11.4165174,2.83663545 L11.4741769,2.88251896 L11.5311185,2.92890512 L11.5871265,2.9757221 L11.6429191,3.02347255 L11.6982091,3.07194106 L11.7529247,3.12112761 L11.8069222,3.170745 L11.8602016,3.22100863 L11.9133375,3.27220573 L11.9653244,3.32354644 L12.0168806,3.37582062 L12.0680059,3.42874104 L12.1181977,3.48202049 L12.1678151,3.53594619 L12.216858,3.59058994 L12.2652547,3.64573633 L12.3130052,3.70160076 L12.3601812,3.75803964 L12.4064955,3.81483755 L12.452379,3.87249711 L12.4974009,3.93051571 L12.5414893,3.98874972 L12.5854341,4.04827622 L12.6285172,4.10808994 L12.6703796,4.16768825 L12.7120266,4.22865086 L12.7530992,4.2901161 L12.7929511,4.35150953 L12.8323003,4.41376463 L12.8712905,4.4769532 L12.9090601,4.53999816 L12.9461115,4.60354575 L12.9826604,4.66802681 L13.0180603,4.73222065 L13.0528858,4.79741976 L13.0872805,4.86348054 L13.1205263,4.92925409 L13.1529105,4.99560209 L13.184792,5.06281174 L13.2159554,5.13059584 L13.24597,5.19794911 L13.2752665,5.26623585 L13.3039886,5.33509702 L13.3315618,5.40388639 L13.3585605,5.47368104 L13.3846258,5.54347568 L13.4098294,5.61370116 L13.434315,5.68442927 L13.4578671,5.75566002 L13.4805576,5.82681896 L13.5022427,5.89840874 L13.5233535,5.97093198 L13.5436025,6.04395785 L13.5627745,6.11640929 L13.5810848,6.18979419 L13.5986771,6.26360993 L13.6151923,6.33735386 L13.6309894,6.41203126 L13.6457813,6.48663685 L13.6596397,6.56160147 L13.6725646,6.63649428 L13.6845561,6.71232056 L13.6957577,6.78850587 L13.705954,6.865122 L13.7152169,6.94159453 L13.7234027,7.01799525 L13.7307986,7.09576027 L13.7372611,7.17338168 L13.7426465,7.25093129 L13.7470984,7.32934255 L13.7506169,7.40753841 L13.7530583,7.48616509 L13.754638,7.5651508 L13.7550688,7.64449553 L13.754638,7.72384027 L13.7530583,7.80275417 L13.7506169,7.88138085 L13.7470984,7.95964851 L13.7426465,8.03805978 L13.7372611,8.11553758 L13.7307986,8.19315899 L13.7234027,8.27099581 L13.7152169,8.34732473 L13.705954,8.42379726 L13.6957577,8.50041339 L13.6845561,8.5766705 L13.6725646,8.65242498 L13.6596397,8.72731779 L13.6457813,8.80235422 L13.6309894,8.876888 L13.6151923,8.9515654 L13.5986771,9.02530933 L13.5810848,9.09912506 L13.5627745,9.17250997 L13.5436025,9.2449614 L13.5233535,9.31798728 L13.5022427,9.39051052 L13.4805576,9.4621721 L13.4578671,9.53333105 L13.434315,9.60448999 L13.4099013,9.6752181 L13.3846258,9.74551538 L13.3585605,9.81523822 L13.3315618,9.88503286 L13.3039886,9.95389404 L13.2752665,10.0226834 L13.24597,10.0909701 L13.2159554,10.1583234 L13.184792,10.2261075 L13.1529105,10.2933172 L13.1205263,10.3596652 L13.0872805,10.4254387 L13.0528858,10.4915713 L13.0180603,10.5566986 L12.9826604,10.6208924 L12.9461115,10.6853735 L12.9090601,10.7489211 L12.8712905,10.8118943 L12.8323003,10.8751546 L12.7929511,10.9374815 L12.7530992,10.9988032 L12.7120266,11.0603402 L12.6703796,11.121231 L12.6285172,11.1808293 L12.5854341,11.240643 L12.5414893,11.3001695 L12.4974009,11.3584036 L12.452379,11.4164221 L12.4064955,11.4740817 L12.3601812,11.5308078 L12.3130052,11.5873185 L12.2652547,11.6431829 L12.216858,11.6984011 L12.1678869,11.7529013 L12.1181977,11.8068988 L12.0680059,11.8601782 L12.0168806,11.9130986 L11.9652526,11.9653728 L11.9133375,12.0167135 L11.8602016,12.0679106 L11.8069222,12.1181743 L11.7529247,12.1677916 L11.6982091,12.2169782 L11.6429191,12.2653749 L11.5871983,12.3131972 L11.5310467,12.3600141 L11.4741769,12.4064003 L11.4165174,12.4522838 L11.3586424,12.4972339 L11.2999058,12.5416813 L11.2407383,12.5854106 L11.1812836,12.6281347 L11.1208236,12.6705716 L11.06022,12.7121468 L10.999042,12.7528603 L10.9372177,12.7930712 L10.8748908,12.8324923 L10.8121331,12.8711235 L10.7489445,12.9090366 L10.6852533,12.9461599 L10.6211313,12.9824933 L10.556363,13.0181805 L10.4913793,13.053006 L10.4256776,13.0871135 L10.3596168,13.1205029 L10.2931252,13.1530307 L10.2260591,13.1848404 L10.1587777,13.2157884 L10.09085,13.2460184 L10.0225632,13.2753867 L9.95413289,13.3038216 L9.88498449,13.3315384 L9.81533346,13.3585371 L9.74553881,13.3846024 L9.67531334,13.409806 L9.60451342,13.4342198 L9.53328267,13.4578437 L9.46190831,13.4805341 L9.39017493,13.5023629 L9.31801071,13.52333 L9.24534386,13.5435073 L9.17231798,13.5627511 L9.09907669,13.5811332 L9.02540457,13.5986537 L8.95144522,13.6152407 L8.87712685,13.6308942 L8.80244945,13.6456861 L8.72734122,13.6596163 L8.65201758,13.6725412 L8.57633491,13.6846045 L8.50036502,13.6957343 L8.42410791,13.7059306 L8.34741997,13.7151935 L8.27051661,13.7234511 L8.19325422,13.730847 L8.11570462,13.7372377 L8.0379396,13.7426231 L7.95988736,13.747075 L7.88140429,13.7505934 L7.8027058,13.7530348 L7.72372009,13.7545427 L7.64444716,13.7550454 L7.56517423,13.7545427 L7.48626033,13.7530348 L7.40756184,13.7505934 L7.32907877,13.747075 L7.25095472,13.7426231 L7.1731897,13.7372377 L7.09556829,13.730847 L7.01837771,13.7234511 L6.94154616,13.7151935 L6.86485822,13.7059306 L6.7885293,13.6957343 L6.71255941,13.6846045 L6.63687674,13.6725412 L6.56155309,13.6596163 L6.48644487,13.6456861 L6.41176747,13.6308942 L6.3375209,13.6152407 L6.26348975,13.5986537 L6.18988943,13.5811332 L6.11657633,13.5627511 L6.04362226,13.5435073 L5.9708836,13.52333 L5.898863,13.5024347 L5.82712961,13.4805341 L5.75546804,13.4577719 L5.6843809,13.4342198 L5.6137964,13.4098778 L5.54342731,13.3846024 L5.47341725,13.3584653 L5.40412524,13.3316102 L5.33504865,13.3038934 L5.26618747,13.2752431 L5.19790074,13.2458748 L5.13018844,13.2157884 L5.06283518,13.1848404 L4.99598454,13.1531025 L4.92934933,13.1205029 L4.86321675,13.0871853 L4.79787403,13.0531496 L4.73260311,13.0181805 L4.66783483,12.9824933 L4.60349738,12.9460163 L4.53973437,12.908893 L4.47676122,12.8711235 L4.41400348,12.8324923 L4.35167658,12.7930712 L4.29013953,12.7530039 L4.22874609,12.7121468 L4.16778349,12.670428 L4.10789796,12.6283501 L4.04829965,12.5854106 L3.98906037,12.5416813 L3.93039553,12.4972339 L3.87244874,12.4522838 L3.8151482,12.4066157 L3.75791946,12.3600141 L3.70155239,12.3129099 L3.64568795,12.2651595 L3.59068518,12.2169782 L3.53625684,12.1680071 L3.48211573,12.1181743 L3.42869267,12.0679106 L3.37598766,12.0170008 L3.32342626,11.9650856 L3.27201375,11.9130986 L3.22124748,11.8604654 L3.17076843,11.8068988 L3.12115104,11.7529013 L3.0721799,11.6984011 L3.02349599,11.6428239 L2.97596095,11.5873185 L2.92907216,11.5311668 L2.88225518,11.4737227 L2.83658708,11.4164221 L2.79185244,11.3587626 L2.74726142,11.2998105 L2.70353206,11.240643 L2.66073617,11.1812601 L2.61837111,11.120872 L2.57686771,11.0603402 L2.53615416,10.9991622 L2.49579965,10.9370507 L2.4563786,10.8747956 L2.41789102,10.8123251 L2.38012149,10.7493519 L2.3429264,10.6853735 L2.30630575,10.6208924 L2.27069038,10.5562678 L2.23579305,10.4911405 L2.2018292,10.4258696 L2.16851159,10.3596652 L2.13576843,10.2928863 L2.10410234,10.2261075 L2.0731543,10.1588261 L2.04306793,10.0909701 L2.0136278,10.0226834 L1.98526475,9.95432487 L1.95747614,9.88503286 L1.93040558,9.81523822 L1.9044121,9.74551538 L1.87913668,9.6752181 L1.85472291,9.60448999 L1.83109901,9.53333105 L1.80848037,9.4621721 L1.78657979,9.39000789 L1.76539726,9.31748465 L1.74543541,9.24546404 L1.72619162,9.17250997 L1.7078095,9.09912506 L1.69043264,9.02581197 L1.67384564,8.9515654 L1.6580485,8.876888 L1.64325663,8.80235422 L1.62932642,8.72731779 L1.61640149,8.65192234 L1.60433822,8.5766705 L1.59328022,8.50041339 L1.58301208,8.42379726 L1.57374921,8.34732473 L1.5654198,8.27042137 L1.55816748,8.19373343 L1.55177682,8.11604021 L1.54631962,8.03805978 L1.5418677,7.95964851 L1.53834925,7.88138085 L1.53590787,7.80275417 L1.53439996,7.72326582 L1.53382552,7.64449553 L1.53439996,7.56565343 L1.53590787,7.48616509 L1.53834925,7.40753841 L1.5418677,7.32934255 L1.54631962,7.25093129 L1.55177682,7.17287905 L1.55816748,7.09525764 L1.5654198,7.01849789 L1.57374921,6.94159453 L1.58301208,6.865122 L1.59328022,6.78850587 L1.60433822,6.71232056 L1.61640149,6.63699692 L1.62932642,6.56160147 L1.64325663,6.48663685 L1.6580485,6.41203126 L1.67384564,6.33735386 L1.69043264,6.26310729 L1.7078095,6.18979419 L1.72619162,6.11640929 L1.74543541,6.04345522 L1.76539726,5.97143461 L1.78657979,5.89891137 L1.80848037,5.82681896 L1.83109901,5.75566002 L1.85472291,5.68442927 L1.87913668,5.61370116 L1.9043403,5.54347568 L1.93040558,5.47368104 L1.95747614,5.40388639 L1.98526475,5.33459439 L2.0136278,5.26623585 L2.04306793,5.19794911 L2.0731543,5.13016501 L2.10410234,5.06281174 L2.13576843,4.99603292 L2.16851159,4.92925409 L2.2018292,4.86304971 L2.23579305,4.79785059 L2.27069038,4.73265148 L2.30630575,4.66802681 L2.3429264,4.60354575 L2.38019329,4.53956733 L2.41789102,4.47659418 L2.4563786,4.41412366 L2.49579965,4.35186856 L2.53615416,4.28975707 L2.57686771,4.22865086 L2.61837111,4.16804728 L2.66073617,4.10773092 L2.70353206,4.04827622 L2.74726142,3.98910874 L2.79185244,3.93015668 L2.83658708,3.87249711 L2.88225518,3.81519657 L2.92907216,3.75775242 L2.97596095,3.70160076 L3.02349599,3.64609535 L3.0721799,3.59058994 L3.12115104,3.53594619 L3.17076843,3.48202049 L3.22124748,3.42845382 L3.27201375,3.37582062 L3.32342626,3.32383366 L3.37598766,3.27191851 L3.42869267,3.22100863 L3.48211573,3.170745 L3.53625684,3.12091219 L3.59068518,3.07194106 L3.64568795,3.02375977 L3.70155239,2.97593752 L3.75791946,2.92890512 L3.8150764,2.88230355 L3.87244874,2.83663545 L3.93039553,2.7916854 L3.98906037,2.74723799 L4.04822785,2.70350863 L4.10789796,2.66056912 L4.16785529,2.61849128 L4.22874609,2.57684427 L4.29013953,2.53591531 L4.35167658,2.49584802 L4.41400348,2.45642697 L4.47676122,2.41779578 L4.53973437,2.38002625 L4.60349738,2.34290296 L4.66783483,2.30642593 L4.73260311,2.27066694 L4.79780222,2.23576962 L4.86321675,2.20173396 L4.92934933,2.16841635 L4.99598454,2.1358168 L5.06290698,2.1040789 L5.13011664,2.07313087 L5.19790074,2.04304449 L5.26625928,2.01367617 L5.33512046,1.9850259 L5.40412524,1.9573091 L5.47341725,1.93045396 L5.54342731,1.90431687 L5.6137964,1.87904144 L5.6843809,1.85469948 L5.75546804,1.83114738 L5.82712961,1.80838513 L5.898863,1.78648455 L5.9708836,1.76558924 L6.04362226,1.74541198 L6.11657633,1.72616819 L6.18988943,1.70778606 L6.26348975,1.6902656 L6.3375209,1.6736786 L6.41176747,1.65802507 L6.48644487,1.6432332 L6.56155309,1.62930299 L6.63687674,1.61637806 L6.71255941,1.60431478 L6.7885293,1.59318498 L6.86485822,1.58298864 L6.94147435,1.57372577 L7.01837771,1.56546818 L7.09556829,1.55807224 L7.1731897,1.55168158 L7.25095472,1.54629619 L7.32907877,1.54184427 L7.40756184,1.53832581 L7.48618852,1.53588444 L7.56524604,1.53437653 Z M19.5115472,18.7550561 L18.7550078,19.5115238 L12.2926125,13.0490567 L13.049152,12.2925891 L19.5115472,18.7550561 Z" id="Combined-Shape"></path>
                                            </g>
                                        </g>
                                    </g>
                                </g>
</svg>