<svg xmlns="http://www.w3.org/2000/svg" viewBox="0 0 439.37 439.37"><defs><style>.cls-1,.cls-2{fill:none;stroke:#353535;stroke-width:6px;}.cls-1{stroke-linecap:round;stroke-linejoin:round;}.cls-2{stroke-miterlimit:10;}</style></defs><title>Kaffeeform-xxx-cup-outline-6pt-empty</title><path d="M101.46 317.22a7.4 7.4 0 0 1-.3 1c-.07.16-.13.32-.2.48l-.14.24-.16.24a5.05 5.05 0 0 1-1.5 1.45 6.9 6.9 0 0 1-1.08.56l-.45.1-.2.02-.17.06a10.28 10.28 0 0 1-1 .25c-.32.06-.7.12-1.06.17a30.62 30.62 0 0 1-9.68-.7 65.45 65.45 0 0 1-6.52-1.7q-1.77-.57-3.62-1.25l-1.87-.7-.9-.4-.6-.14-.4-.2c-2-.87-4.2-1.9-6.46-3.06-1.12-.6-2.26-1.23-3.4-1.9-.57-.35-1.13-.7-1.7-1l-.85-.56-.43-.3-.2-.15-.2-.13a56.3 56.3 0 0 1-4.8-3.6 42.27 42.27 0 0 1-5.5-5.64 29 29 0 0 1-3.74-5.96 22.6 22.6 0 0 1-.94-2.4c-.1-.33-.2-.7-.3-1 0-.13-.1-.3-.1-.44l-.06-.22-.06-.22a18.5 18.5 0 0 1-.43-5.4 17.76 17.76 0 0 1 .35-2.4c.1-.4.2-.75.3-1.12.04-.18.1-.36.15-.54l.18-.52a18.27 18.27 0 0 1 6.22-8.3 22.44 22.44 0 0 1 4.32-2.56c.77-.34 1.55-.64 2.33-.9s1.52-.48 2.38-.68a34.28 34.28 0 0 1 5.4-.84c.93-.06 1.9-.1 2.85-.1h1.46l1.46.06a39.5 39.5 0 0 1 5.24.65c.9.2 1.73.4 2.56.63.4.13.84.27 1.25.4l.6.25.6.23a12.58 12.58 0 0 1 3.66 2.6 17.34 17.34 0 0 1 1.6 1.88c.23.35.5.7.7 1.07l.35.56.2.27.16.28a55.78 55.78 0 0 1 3.73 8.7c.67 1.95 1.24 3.65 1.77 5.1q.4 1.1.77 2c.1.3.22.6.32.86l.13.4.07.2.1.2c.62 1.64 1.27 3.2 1.9 4.64l.94 2.12c.16.33.3.67.46 1 .06.16.13.33.2.5l.22.5c.7 1.54 1.35 3 1.93 4.45.3.7.56 1.4.8 2.1.14.3.26.63.37 1s.2.6.3.9a14.3 14.3 0 0 1 .84 6.97zm322.36 58.98H15.36a14.74 14.74 0 0 0-1.7.2c-.3.04-.6.1-.9.18l-.42.12-.57.2-.3.13a6.45 6.45 0 0 0-1.3.76 6.05 6.05 0 0 0-1 .9l-.2.2-.2.2-.2.3v.1c-.07.1-.14.2-.2.33l-.15.34-.07.2c0 .1-.08.22-.12.34v.1a3 3 0 0 0-.08.37v.3c0 .13 0 .25 0 .37v.2c0 .14 0 .3 0 .46a4.8 4.8 0 0 0 .1.74v.1a6.24 6.24 0 0 0 .33.9 6 6 0 0 0 1.2 1.7 6.8 6.8 0 0 0 1.32 1 7.23 7.23 0 0 0 .76.4 8.28 8.28 0 0 0 .83.33c.2.1.5.15.8.2l.4.1.44.1h9.35l.33.06.84.2.84.2.88.2.85.2.85.25.85.24.9.24.84.23.86.26.88.26.9.27.86.3.85.3.83.3.84.3.85.3.85.33.84.34.86.32.8.33.8.33.8.35.8.35 1.6.75 1.55.8.8.4c1 .6 2 1.18 3 1.78.47.3 1 .6 1.42.93s.95.6 1.42.9l1.4 1 1.4.9.73.47.7.42.74.47.74.44.37.2.4.2c.76.46 1.53.86 2.3 1.24q.8.4 1.6.74l.85.38.84.32.84.3.85.3c.3.1.6.16.9.24l.4.1.46.16.9.2.42.1.44.1c.3.1.6.16.9.2l.44.1.45.1.9.14.47.1.47.02.9.12.47.04.46.08.9.1h.47l.93.08.92.06.9.08 1.84.1 1.8.1h2.23l.45.05h.1l.56.1a6.48 6.48 0 0 1 1.13.38 5.3 5.3 0 0 1 .76.4l.37.26a5.6 5.6 0 0 1 .46.37l.14.16.15.14.12.15.14.14.05.1.2.2.1.17.14.17.1.15.1.16.1.17.1.18.1.17.1.16.4.7.2.36.1.17a10.58 10.58 0 0 0 .84 1.3 5.57 5.57 0 0 0 .4.46l.07.1a8 8 0 0 0 1.33 1 8.94 8.94 0 0 0 1.67.8 10.1 10.1 0 0 0 3.36.55h240.6a10 10 0 0 0 3.34-.6 9 9 0 0 0 1.7-.8 7.34 7.34 0 0 0 1.3-1l.07-.04a5.15 5.15 0 0 0 .4-.45 9.94 9.94 0 0 0 .9-1.3l.1-.2.2-.33.4-.7.1-.18.1-.2.1-.2.1-.15.1-.2.17-.17.1-.18.13-.2.17-.25.08-.1.16-.14.15-.14.14-.14.15-.13a5.76 5.76 0 0 1 .44-.4c.1-.1.2-.2.33-.27a5 5 0 0 1 .78-.4 7.44 7.44 0 0 1 1.16-.37l.57-.1h.1l.48-.08h2.24l1.76-.08 1.83-.1.9-.06.9-.07.9-.1h.5l.9-.1.46-.03.46-.03.9-.1.48-.07.47-.08.9-.16.47-.1.46-.1c.3-.04.6-.1.9-.2l.45-.1.45-.1.87-.2.44-.16.43-.14.86-.25.83-.3.8-.3.83-.3.83-.36c.53-.25 1.06-.5 1.6-.76.8-.37 1.56-.77 2.3-1.2l.38-.2.37-.23.77-.43.74-.5.7-.45.74-.46 1.4-.94 1.4-.95c.47-.3.94-.6 1.4-.92l1.45-.94c1-.6 2-1.2 3-1.75l.74-.4 1.56-.8 1.6-.77.8-.4.8-.35.84-.36.82-.36.8-.32.83-.3.84-.33.86-.3.83-.3.83-.3.86-.3.84-.26.85-.28.87-.27.88-.27.9-.26.87-.25.87-.2.85-.25.86-.2.86-.2.9-.2.87-.2.34-.08h9.36l.45-.06.43-.1a8.28 8.28 0 0 0 .88-.22 8.13 8.13 0 0 0 .8-.33 8.5 8.5 0 0 0 .75-.4 7 7 0 0 0 1.3-1 5.87 5.87 0 0 0 1.2-1.7 5.26 5.26 0 0 0 .33-.9v-.1a5.34 5.34 0 0 0 .1-.74c0-.18 0-.33 0-.5 0-.1 0-.24 0-.36a2 2 0 0 0 0-.3c0-.12-.07-.24-.1-.36v-.1c0-.1-.08-.23-.1-.35l-.08-.2c0-.1-.1-.22-.17-.34s-.12-.2-.2-.33l-.04-.1c-.05-.1-.13-.23-.2-.34l-.2-.24-.17-.2a6.33 6.33 0 0 0-1-.9 6.45 6.45 0 0 0-1.3-.8l-.3-.1c-.2-.08-.4-.15-.6-.2l-.4-.13c-.28-.07-.58-.12-.88-.2a15.07 15.07 0 0 0-1.7-.16h-.44zM300.37 375c3.07-7.06 8.63-11.85 13.06-17.7s8.8-11.73 13.07-17.7c8.58-12 16.6-24.07 22.48-37.77 5.94-13.85 8.65-27.84 9.86-42.7.6-7.33.86-14.67 1-22 .1-7.65 3.14-17.15-8.36-17.15H101c-12 0-8.48 10-8.36 17.87a19.24 19.24 0 0 1-.06 6.82c-.27.35-.55.68-.84 1a11.73 11.73 0 0 1-1.1 1 11.25 11.25 0 0 1-1.2.9 12.4 12.4 0 0 1-2.8 1.3 18 18 0 0 1-3.34.73 34.62 34.62 0 0 1-3.8.28c-1.35 0-2.75 0-4.2 0-2.88-.08-5.93-.23-9.1-.2a60.93 60.93 0 0 0-9.74.73c-.83.2-1.67.3-2.5.5s-1.7.4-2.54.7a34.37 34.37 0 0 0-5 1.9c-.8.4-1.62.8-2.4 1.3s-1.58 1-2.32 1.5a29 29 0 0 0-7.57 7.96 30.54 30.54 0 0 0-2.54 4.8c-.4.84-.7 1.7-1 2.55s-.5 1.7-.7 2.58a36.43 36.43 0 0 0-.9 5.18 39.65 39.65 0 0 0-.1 5.2 42.7 42.7 0 0 0 .54 5.1 44.44 44.44 0 0 0 1.15 5 46.93 46.93 0 0 0 1.7 4.8 49.75 49.75 0 0 0 4.7 8.78c.94 1.38 1.93 2.7 2.97 4s2.14 2.5 3.27 3.7a64.16 64.16 0 0 0 7.22 6.4q1.9 1.46 3.9 2.8c1.34.87 2.7 1.72 4.07 2.5a115.8 115.8 0 0 0 16.88 7.88c5.7 2.2 11.44 4.08 17 5.95s11.1 3.77 16.5 5.88q4 1.6 7.95 3.35t7.77 3.74a166 166 0 0 1 14.8 8.7q4.17 2.7 8.18 5.64c1.6 2.07 3.38 3.94 4.46 6.42" class="cls-1"/><path d="M109.4 219.95v10c0 40.57 2.87 61.07 27 95.3 25.93 36.75 51.72 33 89.78 33s63.86 3.7 89.78-33c5-7.06 8.9-13.4 10.6-16.5a159.85 159.85 0 0 0 10.5-23.54c7.62-22.6 6.68-45.6 6-55.2v-11.7M84.16 409.7l280-.18" class="cls-2"/></svg>