<svg xmlns="http://www.w3.org/2000/svg" viewBox="0 0 439.37 439.37"><defs><style>.cls-1,.cls-2{fill:none;stroke:#353535;stroke-width:6px;}.cls-1{stroke-linecap:round;stroke-linejoin:round;}.cls-2{stroke-miterlimit:10;}</style></defs><title>Kaffeeform-xxx-cup-outline-6pt-empty</title><path d="M424 375.25H15.54a14.74 14.74 0 0 0-1.7.18c-.3.05-.6.1-.9.2l-.42.1-.57.2-.3.14a6.45 6.45 0 0 0-1.3.76 6.05 6.05 0 0 0-1 .9l-.2.25-.2.24-.2.33v.08c-.07.12-.14.23-.2.34l-.15.35-.07.18c0 .12-.08.24-.12.36v.1a3 3 0 0 0 0 .36v.28c0 .13 0 .25 0 .37v.2c0 .14 0 .3 0 .46a4.8 4.8 0 0 0 .1.75v.1a6.24 6.24 0 0 0 .36.9 6 6 0 0 0 1.2 1.7 6.8 6.8 0 0 0 1.3 1 7.23 7.23 0 0 0 .77.4 8.28 8.28 0 0 0 .83.33c.3.1.56.2.84.3l.44.1.4.1h9.36l.35.1.88.2.87.2.87.2.9.2.87.24.87.23.9.25.88.26.88.25.88.28.84.3.86.27.86.3.83.3.88.3.9.3.84.33.84.33.83.33.84.3.8.36.82.34.8.4 1.6.77 1.55.8.78.4c1 .55 2 1.13 3 1.73.5.3 1 .63 1.45.95s.96.6 1.43.94l1.4.96 1.42.94.7.44.7.44.74.45.76.43.38.2.4.2c.75.43 1.52.83 2.3 1.2q.8.4 1.6.75l.84.38.8.33.87.3.84.3c.28.1.57.17.87.25l.43.14.42.15.9.22.46.1.45.1c.3.08.6.15.87.2l.45.1.44.08.9.16.45.06.45.04.9.12.44.07.46.05.93.1h.46l.9.07.92.07.92.04 1.82.1 1.8.08h2.23l.45.06h.1l.55.1a6.48 6.48 0 0 1 1.13.3 5.3 5.3 0 0 1 .78.4l.38.25a5.6 5.6 0 0 1 .44.4l.17.15.1.15.13.14.13.1.05.1.2.25.1.16.14.18.1.16.1.13.1.17.1.17.1.2.1.16.35.74.2.36.1.17a10.58 10.58 0 0 0 .9 1.3 5.57 5.57 0 0 0 .4.44l.1.1a8 8 0 0 0 1.3 1 8.94 8.94 0 0 0 1.7.8 10.1 10.1 0 0 0 3.3.55h240.5a10 10 0 0 0 3.35-.57 9 9 0 0 0 1.7-.8 7.34 7.34 0 0 0 1.3-1l.1-.1a5.15 5.15 0 0 0 .4-.45 9.94 9.94 0 0 0 .87-1.3l.1-.17.2-.35.4-.7.1-.18.1-.17.1-.17.1-.15.1-.15.15-.18.1-.16.13-.15.17-.23.07-.1.14-.17.13-.16.15-.15.18-.14a5.76 5.76 0 0 1 .4-.4c.1-.07.23-.16.36-.23a5 5 0 0 1 .75-.4 7.44 7.44 0 0 1 1.13-.35l.55-.1h.1l.45-.05h2.23l1.8-.06 1.85-.1.97-.04.9-.07.9-.1h.47l.9-.1.46-.06.46-.04.9-.13.45-.07.48-.1.9-.14.44-.1.45-.07c.3-.08.6-.15.9-.2l.45-.1.46-.1.87-.26.43-.12.46-.1.87-.27.86-.25.84-.3.83-.32.84-.34c.55-.25 1.08-.5 1.6-.76.8-.37 1.58-.77 2.33-1.2l.36-.2.37-.23.74-.42.73-.45.73-.46.7-.46 1.4-.93 1.43-.95c.45-.3.92-.6 1.4-.9l1.42-.95c1-.6 2-1.18 3-1.74l.76-.4 1.6-.8 1.6-.74.8-.35.8-.35.8-.36.82-.34.8-.35.85-.3.84-.3.85-.3.83-.3.84-.3.9-.3.86-.27.86-.3.86-.25.87-.3.9-.25.87-.25.9-.24.85-.25.88-.2.84-.2.9-.2.87-.2.34-.1h9.3l.48-.05.43-.1a8.28 8.28 0 0 0 .86-.22 8.13 8.13 0 0 0 .8-.33 8.5 8.5 0 0 0 .76-.4 7 7 0 0 0 1.3-1 5.87 5.87 0 0 0 1.2-1.7 5.26 5.26 0 0 0 .35-.9v-.1a5.34 5.34 0 0 0 .12-.72c0-.17 0-.3 0-.48v-.2c0-.14 0-.26 0-.38a2 2 0 0 0 0-.28c0-.14-.07-.26-.1-.38v-.1c0-.1-.1-.23-.13-.35l-.05-.16c0-.13-.1-.24-.16-.36s-.15-.25-.2-.36l-.07-.06c-.07-.1-.15-.2-.2-.32l-.2-.24-.2-.2a6.33 6.33 0 0 0-1-.9 6.45 6.45 0 0 0-1.3-.76l-.3-.12c-.2-.04-.4-.1-.6-.2l-.4-.1c-.3-.1-.6-.12-.9-.2a15.07 15.07 0 0 0-1.7-.16h-.45zM305.44 374c3.38-7.76 9.5-13 14.36-19.45s9.68-12.9 14.37-19.46c9.43-13.2 18.25-26.5 24.7-41.6 6.54-15.2 9.52-30.6 10.85-46.97.67-8.06.94-16.1 1.06-24.2.12-8.4 3.45-18.85-9.2-18.85H86.3c-13.17 0-9.32 11-9.2 19.64a21.14 21.14 0 0 1-.06 7.5c-.3.4-.6.75-.92 1.1a12.9 12.9 0 0 1-1.2 1.2 12.36 12.36 0 0 1-1.33 1 13.63 13.63 0 0 1-3.1 1.4 19.83 19.83 0 0 1-3.7.83 38.06 38.06 0 0 1-4.2.3c-1.5 0-3 0-4.6 0-3.2-.1-6.5-.26-10-.24a67 67 0 0 0-10.7.8c-.9.2-1.9.38-2.8.6s-1.87.45-2.8.73a37.78 37.78 0 0 0-5.5 2.1c-.9.4-1.76.88-2.62 1.4s-1.73 1.05-2.55 1.63a31.84 31.84 0 0 0-8.34 8.76 33.57 33.57 0 0 0-2.8 5.2c-.4.93-.74 1.86-1 2.8s-.58 1.88-.8 2.83a40 40 0 0 0-.9 5.7 43.58 43.58 0 0 0-.14 5.7 46.92 46.92 0 0 0 .6 5.6 48.85 48.85 0 0 0 1.26 5.4 51.6 51.6 0 0 0 1.85 5.28 54.7 54.7 0 0 0 5.13 9.62c1 1.5 2.1 3 3.24 4.38s2.34 2.78 3.6 4a70.52 70.52 0 0 0 8 7.07q2.1 1.6 4.3 3.07c1.46 1 3 1.9 4.47 2.78a127.28 127.28 0 0 0 18.57 8.66c6.26 2.4 12.56 4.48 18.72 6.54s12.3 4.16 18.2 6.5q4.4 1.73 8.72 3.67t8.54 4.2a182.45 182.45 0 0 1 16.3 9.57q4.55 3 9 6.2c1.74 2.28 3.7 4.34 4.88 7.06" class="cls-1"/><path d="M95.53 203.6v11c0 44.6 3.15 67.13 29.7 104.77 28.5 40.4 56.87 36.33 98.7 36.33s70.2 4.07 98.68-36.3c5.5-7.76 9.8-14.75 11.7-18.13a175.7 175.7 0 0 0 11.5-25.9c8.4-24.84 7.4-50.13 6.6-60.77v-12.9M84.3 408.73l280-.17" class="cls-2"/><path d="M91.82 313.2a8.7 8.7 0 0 1-.35 1.17c-.08.2-.16.38-.25.57l-.15.28-.18.28a5.93 5.93 0 0 1-1.8 1.7 8.1 8.1 0 0 1-1.3.66l-.5.2-.3.08-.2.07a12.06 12.06 0 0 1-1.2.3c-.4.1-.8.2-1.26.2a35.93 35.93 0 0 1-11.37-.8 76.82 76.82 0 0 1-7.7-2q-2.07-.6-4.24-1.4l-2.1-.9-1.1-.4-.58-.22-.58-.2c-2.4-1-4.95-2.2-7.56-3.6-1.3-.7-2.6-1.4-4-2.2-.62-.4-1.3-.8-2-1.24l-1-.65-.5-.34-.2-.15-.24-.2a66.1 66.1 0 0 1-5.63-4.23 49.62 49.62 0 0 1-6.45-6.5 34 34 0 0 1-4.4-7 26.54 26.54 0 0 1-1.1-2.8c-.16-.44-.28-.85-.4-1.24 0-.18-.1-.36-.14-.54l-.07-.28-.1-.26a21.7 21.7 0 0 1-.5-6.37 20.85 20.85 0 0 1 .4-2.83c.1-.44.24-.87.36-1.3.07-.2.13-.42.2-.63l.2-.6a21.44 21.44 0 0 1 7.3-9.7 26.33 26.33 0 0 1 5.1-3c.9-.4 1.8-.74 2.73-1.05s1.76-.56 2.8-.8a40.23 40.23 0 0 1 6.3-1c1.1-.17 2.2-.17 3.3-.17.6 0 1.17 0 1.73 0s1.2 0 1.7.08a46.35 46.35 0 0 1 6.14.77c1 .2 2 .44 3 .72.5.14 1 .3 1.47.47l.7.28.7.3a14.76 14.76 0 0 1 4.3 3 20.35 20.35 0 0 1 1.85 2.2c.3.4.6.87.86 1.3l.45.65.2.34.2.33a65.47 65.47 0 0 1 4.37 10.2c.8 2.3 1.48 4.3 2.1 6q.46 1.28.87 2.36c.13.35.27.7.4 1l.17.47.1.22.1.2c.72 1.9 1.5 3.7 2.22 5.43l1.1 2.5c.2.4.35.8.53 1.2.1.2.2.4.28.6s.16.32.26.55c.8 1.84 1.57 3.6 2.26 5.25.35.83.66 1.64.96 2.4.15.4.3.8.4 1.17s.25.7.4 1.1c.97 3.27 1.35 6.05.9 8.2z" class="cls-1"/></svg>