<svg xmlns="http://www.w3.org/2000/svg" viewBox="0 0 439.37 439.37"><defs><style>.cls-1,.cls-2{fill:none;stroke:#353535;stroke-miterlimit:10;}.cls-1{stroke-width:6px;}.cls-2{stroke-width:2px;}</style></defs><title>Kaffeeform-cappuccino-cup-outline-5pt-empty</title><path d="M86.6 107.57l45.4 301.1a8.27 8.27 0 0 0 8.25 8.26h154a8.27 8.27 0 0 0 8.25-8.25l50.87-301.12m-.72-1.36H87.3a8.27 8.27 0 0 1-8.3-8.26l7.56-22a8.27 8.27 0 0 1 8.25-8.25h250.3a8.27 8.27 0 0 1 8.28 8.2l7.56 22a8.27 8.27 0 0 1-8.24 8.25zM107.22 66.66V41.9a8.27 8.27 0 0 1 8.25-8.24l54.3-9.66h100.4l54.3 9.62a8.27 8.27 0 0 1 8.25 8.25v24.8" class="cls-1"/><path d="M169.78 23L159.7 67.7M271.07 23l10.1 44.7" class="cls-2"/><path id="SVGID" d="M169.78 24.24h101.3l9.16 42.42H159.7l10.08-42.42z" class="cls-1"/><circle cx="219.97" cy="238.88" r="60.27" class="cls-1"/></svg>