<svg xmlns="http://www.w3.org/2000/svg" viewBox="0 0 439.37 439.37"><defs><style>.cls-1,.cls-2{fill:none;stroke:#353535;stroke-width:6px;}.cls-1{stroke-linecap:round;stroke-linejoin:round;}.cls-2{stroke-miterlimit:10;}</style></defs><title>Kaffeeform-xxx-cup-outline-6pt-empty</title><path d="M129.86 329.15a5.53 5.53 0 0 1-.22.74c-.05.1-.1.2-.16.3l-.1.2-.1.2a3.77 3.77 0 0 1-1.12 1.1 5.14 5.14 0 0 1-.82.4l-.33.1h-.2a7.67 7.67 0 0 1-.72.2l-.8.1a22.85 22.85 0 0 1-7.22-.5 48.85 48.85 0 0 1-4.9-1.3q-1.3-.4-2.7-.9l-1.35-.48-.7-.3-.34-.15-.35-.15c-1.53-.64-3.16-1.4-4.8-2.27-.86-.45-1.7-.9-2.55-1.4-.44-.26-.86-.5-1.3-.8l-.63-.4-.3-.2-.15-.1-.17-.1a42 42 0 0 1-3.6-2.7 31.55 31.55 0 0 1-4.1-4.15 21.63 21.63 0 0 1-2.8-4.43 16.88 16.88 0 0 1-.7-1.75c-.1-.27-.14-.53-.2-.77s-.08-.26-.1-.37v-.3a13.8 13.8 0 0 1-.33-4.05 13.26 13.26 0 0 1 .26-1.8c.07-.27.15-.55.2-.82s.1-.24.14-.4l.12-.36a13.63 13.63 0 0 1 4.63-6.2 16.74 16.74 0 0 1 3.24-1.9c.57-.26 1.15-.5 1.73-.68s1.13-.36 1.77-.5a25.58 25.58 0 0 1 4-.63c.7-.05 1.42-.07 2.13-.08h2.18a29.48 29.48 0 0 1 3.9.48c.67.13 1.3.28 1.93.46.3.1.6.2.9.3l.46.2.43.17a9.4 9.4 0 0 1 2.7 1.93 12.94 12.94 0 0 1 1.18 1.4c.2.3.37.6.54.8l.23.4.13.3.13.2a41.63 41.63 0 0 1 2.8 6.47c.5 1.46.93 2.73 1.3 3.8l.57 1.5c.08.23.17.45.25.65l.1.3v.14l.1.14c.48 1.2 1 2.37 1.4 3.46l.7 1.6.37.75.17.4.16.38c.5 1.16 1 2.28 1.44 3.33.22.54.4 1 .6 1.55.1.27.18.5.26.75l.2.7a10.67 10.67 0 0 1 .6 5.2zm253.6 43.1H55.3a9.76 9.76 0 0 0-1.37.18c-.24.05-.47.1-.72.18l-.3.2-.4.2-.24.1a5.06 5.06 0 0 0-1 .8 5.44 5.44 0 0 0-.8.9l-.14.23-.13.24-.2.34v.1c-.05.1-.1.23-.15.34l-.13.34-.07.2c0 .1-.05.23-.1.35v.1a3.5 3.5 0 0 0-.05.34v.3c0 .12 0 .24 0 .36v.2c0 .12 0 .3 0 .43a5.7 5.7 0 0 0 .1.73v.1a7.08 7.08 0 0 0 .24.86 6.07 6.07 0 0 0 1 1.68 5.8 5.8 0 0 0 1.04 1 5.58 5.58 0 0 0 .6.4 6 6 0 0 0 .68.36 6.27 6.27 0 0 0 .7.23l.24.07.37.08h7.5l.3.07.7.2.67.2.7.2.7.2.7.23.7.2.7.25.7.27.7.26.7.25.7.27.7.3.67.27.67.3.7.3.66.3.7.3.68.32.7.32.68.33.65.36.65.35.63.37 1.3.74 1.26.8.6.4c.83.55 1.63 1.12 2.4 1.7.4.3.8.6 1.17.92s.76.6 1.14.9l1.1.96 1.14.92.6.45.58.45.6.44.6.4.3.2.3.2c.6.42 1.23.82 1.86 1.2q.64.4 1.3.7l.65.34.66.3.7.3.68.28c.23.1.46.2.7.27l.33.13.38.1.7.23.38.1.37.1c.2.07.44.14.7.2l.34.1.35.07.7.16.4.1.32.06.72.13.36.08.4.05.73.1h.38l.77.1.77.06.75.05 1.43.06 1.44.1h1.74l.35.05h.1l.45.1a4.54 4.54 0 0 1 .9.35 4 4 0 0 1 .62.4l.3.24a4.93 4.93 0 0 1 .33.37l.14.15.1.13.1.15.1.15.05.06.15.2.1.15.1.16.1.2.1.17.08.15.07.2.1.16.07.2.3.7.17.3.06.17a10.84 10.84 0 0 0 .7 1.28 5.27 5.27 0 0 0 .3.44l.07.1a6.83 6.83 0 0 0 1.07 1 6.7 6.7 0 0 0 1.35.8 6.8 6.8 0 0 0 2.7.53h193.3a6.8 6.8 0 0 0 4-1.36 6.28 6.28 0 0 0 1.05-1l.08-.1a4.88 4.88 0 0 0 .3-.43 10.17 10.17 0 0 0 .7-1.3l.1-.13.14-.35.32-.7.07-.18.1-.17.1-.2.1-.16.1-.18.1-.2.1-.14.08-.13.15-.24.08-.06.1-.16.13-.16.12-.13.1-.14a5 5 0 0 1 .36-.37 3.53 3.53 0 0 1 .3-.25 3.82 3.82 0 0 1 .6-.4 5.2 5.2 0 0 1 .9-.34l.48-.1h.1l.35-.06h1.82l1.44-.08 1.47-.1.76-.05.73-.03.74-.06h.35l.74-.1.36-.04.37-.08.73-.1.38-.05.37-.1.77-.14.34-.1.37-.08c.24 0 .48-.13.72-.2l.35-.1.36-.1.7-.23.33-.1.36-.1.7-.3.66-.3.66-.3.68-.3.68-.34c.43-.24.86-.48 1.28-.73.62-.35 1.25-.75 1.85-1.2l.3-.2.3-.2.6-.4.6-.44.6-.46.6-.45 1.1-.93 1.1-.96c.4-.3.77-.6 1.16-.9l1.13-.9c.8-.6 1.6-1.17 2.4-1.7l.63-.4 1.25-.8 1.25-.74.63-.35.64-.33.62-.33.65-.34.65-.38.67-.32.65-.3.7-.3.66-.3.7-.3.7-.25.67-.28.7-.28.7-.3.7-.25.7-.25.7-.24.7-.22.7-.22.7-.2.66-.2.7-.2.7-.2.25-.06h7.5l.36-.08.36-.1a5.73 5.73 0 0 0 .7-.25 5.9 5.9 0 0 0 .68-.34 6.52 6.52 0 0 0 .6-.4 6 6 0 0 0 1.08-1 6.07 6.07 0 0 0 1.2-2.57v-.1a6.33 6.33 0 0 0 .1-.73c0-.15 0-.3 0-.46v-.2c0-.1 0-.23 0-.36a2.43 2.43 0 0 0 0-.28c0-.12 0-.24-.05-.36v-.1c0-.14-.05-.26-.1-.38l-.05-.18c0-.1-.07-.22-.1-.34l-.16-.3v-.1c-.05-.1-.1-.22-.17-.33l-.15-.22-.15-.23a5.7 5.7 0 0 0-.78-.9 5.05 5.05 0 0 0-1.06-.76l-.25-.14a4.94 4.94 0 0 0-.46-.2l-.38-.1a7.2 7.2 0 0 0-.7-.2 10 10 0 0 0-1.4-.16H384zm-105.14 0c2.3-5.26 6.44-8.83 9.75-13.2s6.57-8.75 9.76-13.2c6.4-9 12.4-18 16.78-28.2s6.5-20.78 7.4-31.87c.5-5.47.7-10.95.7-16.43.1-5.7 2.4-12.8-6.2-12.8h-187c-8.9 0-6.3 7.5-6.2 13.34a14.36 14.36 0 0 1 0 5c-.2.24-.4.5-.6.72a8.75 8.75 0 0 1-.83.8 8.4 8.4 0 0 1-.9.64 9.25 9.25 0 0 1-2.1 1 13.47 13.47 0 0 1-2.47.56 25.84 25.84 0 0 1-2.86.2c-1 0-2 0-3.1 0-2.17-.03-4.45-.14-6.8-.13a45.47 45.47 0 0 0-7.28.55c-.6.1-1.2.22-1.8.36s-1.28.3-1.9.5a25.65 25.65 0 0 0-3.7 1.4c-.6.3-1.23.6-1.8.96s-1.2.72-1.74 1.12a21.62 21.62 0 0 0-5.63 5.9 22.8 22.8 0 0 0-1.9 3.6c-.27.6-.5 1.26-.7 1.9s-.4 1.28-.55 1.9a27.2 27.2 0 0 0-.63 3.88 29.6 29.6 0 0 0-.07 3.87 31.86 31.86 0 0 0 .4 3.83 33.17 33.17 0 0 0 .85 3.7 35 35 0 0 0 1.3 3.57 37.13 37.13 0 0 0 3.5 6.57c.67 1 1.4 2 2.2 3s1.6 1.85 2.43 2.73a47.88 47.88 0 0 0 5.4 4.8q1.43 1.07 2.92 2.07c1 .68 2 1.3 3 1.9a86.42 86.42 0 0 0 12.6 5.87c4.25 1.62 8.52 3 12.7 4.42s8.3 2.8 12.3 4.35q3 1.17 5.94 2.5t5.8 2.8a123.87 123.87 0 0 1 11.05 6.5q3.1 2 6.1 4.2a23.14 23.14 0 0 1 3.3 4.8" class="cls-1"/><path d="M135.8 256.55V264c0 30.28 2.13 45.58 20.16 71.14 19.35 27.42 38.6 24.66 67 24.66s47.66 2.76 67-24.64c3.72-5.27 6.65-10 7.92-12.32a119.3 119.3 0 0 0 7.82-17.58c5.7-16.87 5-34 4.44-41.27v-8.8m-199.54 150l224.9-.2" class="cls-2"/></svg>